<svg xmlns="http://www.w3.org/2000/svg" x="0px" y="0px"
width="50" height="50"
viewBox="0 0 172 172"
style=" fill:#000000;"><g fill="none" fill-rule="nonzero" stroke="none" stroke-width="1" stroke-linecap="butt" stroke-linejoin="miter" stroke-miterlimit="10" stroke-dasharray="" stroke-dashoffset="0" font-family="none" font-weight="none" font-size="none" text-anchor="none" style="mix-blend-mode: normal"><path d="M0,172v-172h172v172z" fill="none"></path><g fill="#ffffff"><path d="M86,0c-19.42052,0 -37.01467,3.49554 -50.0614,9.36594c-6.52337,2.9352 -11.93354,6.46201 -15.84281,10.62234c-3.90928,4.16034 -6.33578,9.10287 -6.33578,14.41172v99.76c0,19.28808 31.73056,34.4 72.24,34.4c5.76544,0 11.32346,-0.33911 16.66922,-0.92047c0.02064,-0.70176 0.09347,-1.39498 0.26203,-2.0761l1.31015,-5.01219c-5.70008,0.70864 -11.77764,1.12875 -18.2414,1.12875c-39.0956,0 -65.36,-14.23128 -65.36,-27.52v-16.15187c11.43112,11.67192 36.06496,19.59187 65.36,19.59187c3.2164,0 6.36416,-0.10986 9.45328,-0.29563l-1.505,-1.24297c-1.9608,-1.26248 -3.32734,-3.20307 -3.9775,-5.42875c-1.32096,0.03096 -2.61886,0.08735 -3.97078,0.08735c-39.0956,0 -65.36,-14.23128 -65.36,-27.52v-19.47765c3.86464,3.93215 9.05232,7.3012 15.2986,10.11172c13.04674,5.8704 30.64088,9.36594 50.0614,9.36594c19.42052,0 37.01467,-3.49554 50.0614,-9.36594c6.24627,-2.81052 11.43395,-6.17957 15.2986,-10.11172v32.90844l6.88,0.41656v-82.64735c0,-5.30885 -2.42651,-10.25138 -6.33578,-14.41172c-3.90927,-4.16034 -9.31945,-7.68714 -15.84281,-10.62234c-13.04674,-5.8704 -30.64088,-9.36594 -50.0614,-9.36594zM86,6.88c18.5846,0 35.38755,3.42843 47.23953,8.76125c5.92599,2.66641 10.59336,5.80842 13.64578,9.05688c3.05243,3.24846 4.47469,6.45716 4.47469,9.70187c0,3.24471 -1.42226,6.45342 -4.47469,9.70187c-3.05243,3.24846 -7.71979,6.39047 -13.64578,9.05688c-11.85198,5.33282 -28.65493,8.76125 -47.23953,8.76125c-18.5846,0 -35.38755,-3.42843 -47.23953,-8.76125c-5.92599,-2.66641 -10.59336,-5.80842 -13.64578,-9.05688c-3.05242,-3.24845 -4.47469,-6.45716 -4.47469,-9.70187c0,-3.24471 1.42226,-6.45342 4.47469,-9.70187c3.05243,-3.24846 7.71979,-6.39047 13.64578,-9.05688c11.85198,-5.33282 28.65493,-8.76125 47.23953,-8.76125zM20.64,49.32235c3.86464,3.93215 9.05232,7.3012 15.2986,10.11172c13.04674,5.8704 30.64088,9.36594 50.0614,9.36594c19.42052,0 37.01467,-3.49554 50.0614,-9.36594c6.24627,-2.81052 11.43395,-6.17957 15.2986,-10.11172v19.47765c0,3.24471 -1.42226,6.45342 -4.47469,9.70187c-3.05243,3.24846 -7.71979,6.39047 -13.64578,9.05688c-11.85198,5.33282 -28.65493,8.76125 -47.23953,8.76125c-18.5846,0 -35.38755,-3.42843 -47.23953,-8.76125c-5.92599,-2.66641 -10.59336,-5.80842 -13.64578,-9.05688c-3.05242,-3.24845 -4.47469,-6.45716 -4.47469,-9.70187zM134.375,99.45094c-1.376,0 -2.752,1.032 -3.44,1.72l-8.25735,21.67469l-23.04531,1.37734c-1.376,0 -2.75335,1.02931 -3.09735,2.40531c-0.344,1.376 0.00135,3.09465 1.37735,3.78265l17.54265,14.45203l-5.85203,22.36c-0.344,1.376 0.34535,3.09465 1.37735,3.78266c0.688,0.344 1.37465,0.68531 2.06265,0.68531c0.69144,0 1.38482,-0.34131 2.06938,-0.68531l19.26265,-12.38266l19.26265,12.72531c1.032,1.032 2.75066,0.688 3.78266,0c1.376,-1.032 1.72134,-2.40666 1.37734,-3.78265l-5.84531,-22.36l17.88531,-14.44531c1.032,-1.032 1.37869,-2.41338 1.03469,-3.78938c-0.344,-1.376 -1.72135,-2.40531 -3.09735,-2.40531l-23.05203,-1.37735l-8.25062,-21.66797c-0.344,-1.032 -1.72135,-2.06938 -3.09735,-2.06938zM134.375,112.52563l5.50265,15.48c0.688,1.032 1.72135,2.06265 3.09735,2.06265l16.51469,1.03469l-12.73203,10.32c-1.032,0.688 -1.37197,2.064 -1.02797,3.44l4.12531,15.82266l-13.76,-8.94266c-0.344,-0.344 -1.032,-0.69203 -1.72,-0.69203c-0.69144,0 -1.37465,0.34938 -2.06265,0.34938l-13.76,8.94265l4.12531,-15.82265c0.344,-1.032 0.00403,-2.752 -1.02797,-3.44l-12.73203,-10.32l16.51469,-0.69203c1.376,-0.344 2.40934,-1.02931 3.09734,-2.40531z"></path></g></g></svg>
