<svg xmlns="http://www.w3.org/2000/svg" x="0px" y="0px"
width="40" height="40"
viewBox="0 0 172 172"
style=" fill:#000000;"><g fill="none" fill-rule="nonzero" stroke="none" stroke-width="1" stroke-linecap="butt" stroke-linejoin="miter" stroke-miterlimit="10" stroke-dasharray="" stroke-dashoffset="0" font-family="none" font-weight="none" font-size="none" text-anchor="none" style="mix-blend-mode: normal"><path d="M0,172v-172h172v172z" fill="none"></path><g fill="#ffffff"><path d="M85.84547,6.90016c-0.27527,0.00039 -0.551,0.03034 -0.8264,0.03359c-1.37496,0.01668 -2.74149,0.06226 -4.09844,0.14781c-0.58932,0.03748 -1.17777,0.09037 -1.76703,0.14109c-1.42205,0.1213 -2.83353,0.27516 -4.23281,0.47031c-0.23493,0.03302 -0.47065,0.05218 -0.70547,0.08734c-1.72813,0.25678 -3.43037,0.58117 -5.11969,0.94734c-0.3593,0.07831 -0.71627,0.16514 -1.075,0.24859c-1.67333,0.38735 -3.33481,0.81212 -4.96516,1.30344c-0.04082,0.01235 -0.08012,0.0279 -0.12094,0.04031c-1.82277,0.55252 -3.61104,1.17674 -5.375,1.85437c-0.14821,0.057 -0.29543,0.11674 -0.44344,0.17469c-3.55686,1.39122 -6.98366,3.02881 -10.26625,4.89797c-0.12817,0.07263 -0.26177,0.12814 -0.38969,0.20156c-0.18506,0.10621 -0.36035,0.22173 -0.54422,0.32922c-0.69884,0.41064 -1.39128,0.83183 -2.07609,1.26312c-0.51346,0.32155 -1.0216,0.64935 -1.52516,0.98094c-0.43168,0.2859 -0.85763,0.57933 -1.28328,0.87344c-0.7945,0.54582 -1.58289,1.09571 -2.35156,1.66625c-0.03696,0.02758 -0.07059,0.0597 -0.1075,0.08734c-9.38028,6.98814 -16.83269,15.77505 -22.13828,25.61188c-0.58437,1.08345 -1.1407,2.17789 -1.67297,3.28547c-0.47076,0.97427 -0.91897,1.96005 -1.35047,2.95625c-0.02732,0.06337 -0.06019,0.12469 -0.08734,0.18813c-0.43948,1.02202 -0.84581,2.06015 -1.24297,3.10406c-0.06311,0.16649 -0.13286,0.3303 -0.19484,0.49719c-0.86961,2.33341 -1.62756,4.72281 -2.27766,7.15547c-0.29836,1.11644 -0.56938,2.24399 -0.81969,3.37953c-0.03075,0.13898 -0.06405,0.27742 -0.09406,0.41656c-0.21062,0.98078 -0.39707,1.9689 -0.57109,2.96297c-0.05421,0.30734 -0.11736,0.61244 -0.16797,0.92047c-0.12371,0.75958 -0.22721,1.52433 -0.32922,2.2911c-0.08759,0.65033 -0.17031,1.30241 -0.24188,1.95516c-0.05366,0.49742 -0.09665,0.9981 -0.14109,1.49828c-0.07475,0.82517 -0.13911,1.65115 -0.18813,2.47922c-0.02486,0.43121 -0.04922,0.86365 -0.06719,1.29672c-0.04253,0.99322 -0.06866,1.98722 -0.07391,2.98312c-0.00057,0.12378 -0.00672,0.24561 -0.00672,0.36953c0,0.14425 0.01267,0.28594 0.01344,0.43c0.00492,1.02946 0.0288,2.05979 0.07391,3.09063c0.01622,0.37242 0.03242,0.74427 0.05375,1.11531c0.0541,0.93461 0.12755,1.86728 0.215,2.80172c0.03684,0.39721 0.07827,0.79376 0.12094,1.18922c0.08958,0.82294 0.19336,1.64392 0.30906,2.46578c0.07747,0.55477 0.15302,1.10856 0.24188,1.65953c0.11303,0.6955 0.24429,1.38879 0.37625,2.08281c0.11806,0.62499 0.23692,1.24817 0.36953,1.86781c0.12032,0.55894 0.25691,1.11543 0.38969,1.67297c0.18279,0.77144 0.36597,1.54211 0.57109,2.30453c0.10726,0.397 0.22225,0.79316 0.33594,1.18922c0.26165,0.91499 0.53304,1.82684 0.82641,2.72781c0.0931,0.28513 0.19241,0.56876 0.28891,0.85328c0.33053,0.97687 0.68097,1.94332 1.04813,2.9025c0.08526,0.22243 0.17464,0.44317 0.26203,0.66515c0.41219,1.04813 0.84169,2.08525 1.29672,3.11078c0.07064,0.15927 0.14323,0.31804 0.215,0.47703c0.45252,1.00181 0.92517,1.9908 1.41766,2.96969c0.13419,0.26735 0.27235,0.5331 0.40984,0.79953c0.4529,0.87518 0.91325,1.74456 1.3975,2.60015c0.10564,0.18752 0.20174,0.37737 0.30906,0.56438c0.10914,0.19017 0.23217,0.36875 0.34266,0.55765c0.38783,0.65968 0.78297,1.31471 1.18922,1.96187c0.36044,0.57752 0.72877,1.14827 1.10187,1.71328c0.25278,0.38055 0.50678,0.75962 0.76594,1.13547c0.55998,0.81685 1.12721,1.62243 1.71328,2.41203c0.02758,0.03696 0.0597,0.07059 0.08734,0.1075c6.98816,9.38031 15.77505,16.83269 25.61188,22.13828c1.08345,0.58437 2.17789,1.1407 3.28547,1.67297c0.97427,0.47076 1.96005,0.91897 2.95625,1.35047c0.06337,0.02732 0.12469,0.0602 0.18813,0.08735c1.02202,0.43948 2.06015,0.84581 3.10406,1.24297c0.16649,0.06311 0.3303,0.13286 0.49719,0.19485c2.33341,0.8696 4.72281,1.62756 7.15547,2.27765c1.11644,0.29835 2.24399,0.56938 3.37953,0.81969c0.13898,0.03075 0.27742,0.06405 0.41656,0.09406c0.98078,0.21062 1.9689,0.39708 2.96297,0.5711c0.30734,0.05421 0.61245,0.11736 0.92047,0.16797c0.75958,0.12371 1.52433,0.22721 2.2911,0.32922c0.65033,0.08759 1.30241,0.17031 1.95516,0.24188c0.49742,0.05366 0.9981,0.09665 1.49828,0.14109c0.82517,0.07474 1.65115,0.13911 2.47922,0.18813c0.43121,0.02486 0.86365,0.04922 1.29672,0.06719c0.99322,0.04253 1.98722,0.06866 2.98312,0.0739c0.12378,0.00057 0.24561,0.00672 0.36953,0.00672c0.14425,0 0.28594,-0.01267 0.43,-0.01344c1.02946,-0.00493 2.05979,-0.0288 3.09063,-0.0739c0.37242,-0.01622 0.74427,-0.03243 1.11531,-0.05375c0.93461,-0.0541 1.86728,-0.12755 2.80172,-0.215c0.39721,-0.03684 0.79376,-0.07827 1.18922,-0.12094c0.82294,-0.08958 1.64392,-0.19336 2.46578,-0.30906c0.55477,-0.07747 1.10856,-0.15301 1.65953,-0.24188c0.6955,-0.11302 1.38879,-0.24428 2.08281,-0.37625c0.62499,-0.11805 1.24817,-0.23692 1.86781,-0.36953c0.55894,-0.12032 1.11543,-0.25691 1.67297,-0.38969c0.77144,-0.18278 1.54211,-0.36597 2.30453,-0.57109c0.397,-0.10726 0.79316,-0.22225 1.18922,-0.33594c0.91499,-0.26165 1.82684,-0.53304 2.72781,-0.8264c0.28513,-0.0931 0.56876,-0.19241 0.85328,-0.2889c0.97687,-0.33053 1.94332,-0.68097 2.9025,-1.04813c0.22243,-0.08526 0.44317,-0.17465 0.66515,-0.26203c1.04813,-0.41219 2.08525,-0.84169 3.11078,-1.29672c0.15927,-0.07064 0.31804,-0.14323 0.47703,-0.215c1.00181,-0.45252 1.9908,-0.92517 2.96969,-1.41765c0.26735,-0.13419 0.53309,-0.27235 0.79953,-0.40985c0.87518,-0.4529 1.74456,-0.91325 2.60015,-1.3975c0.18752,-0.10564 0.37737,-0.20174 0.56438,-0.30906c0.19017,-0.10914 0.36875,-0.23217 0.55765,-0.34265c0.65968,-0.38783 1.31471,-0.78297 1.96187,-1.18922c0.57752,-0.36044 1.14827,-0.72877 1.71328,-1.10188c0.38055,-0.25277 0.75962,-0.50678 1.13547,-0.76594c0.81685,-0.55998 1.62243,-1.12721 2.41203,-1.71328c0.01407,-0.01044 0.02626,-0.02315 0.04031,-0.03359c0.02298,-0.01717 0.04423,-0.03656 0.06719,-0.05375c9.38031,-6.98816 16.83269,-15.77506 22.13828,-25.61188c0.58437,-1.08345 1.1407,-2.17789 1.67297,-3.28547c0.47076,-0.97427 0.91897,-1.96005 1.35047,-2.95625c0.02635,-0.06083 0.05442,-0.12049 0.08063,-0.1814l0.00672,-0.00672c0.43948,-1.02202 0.84581,-2.06015 1.24297,-3.10406c0.0533,-0.1401 0.11544,-0.27608 0.16797,-0.41656c0.00989,-0.02654 0.01701,-0.05407 0.02688,-0.08062c0.8696,-2.33341 1.62756,-4.72281 2.27765,-7.15547c0.29835,-1.11644 0.56938,-2.244 0.81969,-3.37953c0.02331,-0.10576 0.05102,-0.20987 0.07391,-0.31578c0.00727,-0.03351 0.01293,-0.06727 0.02015,-0.10078c0.21062,-0.98078 0.39708,-1.9689 0.5711,-2.96297c0.05421,-0.30734 0.11736,-0.61245 0.16797,-0.92047c0.12371,-0.75958 0.22721,-1.52433 0.32922,-2.2911c0.08759,-0.65033 0.17031,-1.30241 0.24188,-1.95516c0.05366,-0.49742 0.09665,-0.9981 0.14109,-1.49828c0.07474,-0.82517 0.13911,-1.65115 0.18813,-2.47922c0.02486,-0.43121 0.04922,-0.86365 0.06719,-1.29672c0.04253,-0.99322 0.06866,-1.98722 0.0739,-2.98312c0.00057,-0.12378 0.00672,-0.24561 0.00672,-0.36953c0,-0.14425 -0.01267,-0.28594 -0.01344,-0.43c-0.00493,-1.02946 -0.0288,-2.05979 -0.0739,-3.09063c-0.01622,-0.37242 -0.03243,-0.74427 -0.05375,-1.11531c-0.0541,-0.93461 -0.12755,-1.86728 -0.215,-2.80172c-0.03684,-0.39721 -0.07827,-0.79376 -0.12094,-1.18922c-0.08958,-0.82294 -0.19336,-1.64392 -0.30906,-2.46578c-0.07747,-0.55477 -0.15301,-1.10856 -0.24188,-1.65953c-0.11302,-0.6955 -0.24428,-1.38879 -0.37625,-2.08281c-0.11805,-0.62499 -0.23692,-1.24817 -0.36953,-1.86781c-0.12032,-0.55894 -0.25691,-1.11543 -0.38969,-1.67297c-0.18278,-0.77144 -0.36597,-1.54211 -0.57109,-2.30453c-0.10726,-0.397 -0.22225,-0.79316 -0.33594,-1.18922c-0.26165,-0.91499 -0.53304,-1.82684 -0.8264,-2.72781c-0.0931,-0.28513 -0.19241,-0.56876 -0.2889,-0.85328c-0.33053,-0.97686 -0.68097,-1.94332 -1.04813,-2.9025c-0.08526,-0.22243 -0.17465,-0.44317 -0.26203,-0.66515c-0.41219,-1.04813 -0.84169,-2.08525 -1.29672,-3.11078c-0.07064,-0.15927 -0.14323,-0.31804 -0.215,-0.47703c-0.45252,-1.00181 -0.92517,-1.9908 -1.41765,-2.96969c-0.13419,-0.26735 -0.27235,-0.53309 -0.40985,-0.79953c-0.4529,-0.87518 -0.91325,-1.74456 -1.3975,-2.60015c-0.10564,-0.18752 -0.20174,-0.37737 -0.30906,-0.56438c-0.08671,-0.15108 -0.18119,-0.29315 -0.26875,-0.44344c-0.61704,-1.0537 -1.26456,-2.08912 -1.92828,-3.11078c-0.21908,-0.33919 -0.42819,-0.6865 -0.65172,-1.02125c-0.62618,-0.93232 -1.27742,-1.8445 -1.94172,-2.74797c-0.12075,-0.16422 -0.23411,-0.33394 -0.35609,-0.49719c-0.64642,-0.86968 -1.31856,-1.71013 -1.99547,-2.5464c-0.17168,-0.2112 -0.34353,-0.42219 -0.51734,-0.63156c-0.71283,-0.86213 -1.4394,-1.70751 -2.1836,-2.53297c-0.11383,-0.12589 -0.22803,-0.2511 -0.34265,-0.37625c-3.37833,-3.69845 -7.06403,-7.01938 -10.9986,-9.95047l-0.00672,-0.00672l-0.00672,-0.00672c-0.98473,-0.73322 -1.982,-1.44596 -2.99656,-2.12984c-0.03193,-0.02152 -0.06211,-0.04572 -0.09406,-0.06719c-0.11925,-0.08047 -0.2431,-0.15532 -0.36281,-0.23516c-1.51443,-1.00552 -3.06175,-1.95381 -4.63594,-2.84875c-0.53734,-0.30714 -1.06729,-0.62567 -1.6125,-0.92047c-0.52489,-0.28228 -1.06168,-0.53616 -1.59234,-0.80625c-0.78503,-0.40177 -1.57165,-0.79974 -2.37172,-1.17578c-0.46829,-0.21893 -0.93872,-0.42867 -1.41094,-0.63828c-1.04361,-0.46564 -2.09742,-0.90909 -3.16453,-1.33031c-0.24241,-0.09528 -0.48233,-0.19603 -0.72563,-0.28891c-1.37797,-0.52815 -2.77164,-1.01924 -4.18578,-1.47141c-2.92476,-0.93517 -5.92638,-1.70383 -8.98969,-2.29781c-0.24098,-0.04699 -0.48419,-0.08289 -0.72562,-0.12766c-1.19025,-0.21931 -2.38603,-0.41893 -3.59453,-0.58453c-0.47845,-0.06631 -0.958,-0.12377 -1.43781,-0.18141c-0.91127,-0.10798 -1.82734,-0.19858 -2.74797,-0.27547c-0.37935,-0.03228 -0.7555,-0.08736 -1.13547,-0.11422c-0.21208,-0.01499 -0.42603,-0.00686 -0.63828,-0.02016c-1.58117,-0.09676 -3.1717,-0.15818 -4.77703,-0.16125c-0.05183,-0.0001 -0.10268,-0.00672 -0.15453,-0.00672c-0.05166,-0.00003 -0.10287,-0.00679 -0.15453,-0.00672zM86,13.78688c2.50511,0 4.9804,0.12441 7.4175,0.36953c1.18023,0.11871 2.35169,0.2693 3.5139,0.44344c0.11663,0.01773 0.23285,0.03546 0.34938,0.05375c1.1078,0.1715 2.20884,0.36382 3.2989,0.58453l0.0336,0.00672c0.07444,0.01527 0.14733,0.03825 0.22172,0.05375c1.97305,0.40697 3.90932,0.90177 5.81844,1.46469c0.29679,0.08751 0.59845,0.16413 0.8936,0.25531c0.02502,0.00776 0.0489,0.01908 0.0739,0.02688c0.63199,0.19601 1.25028,0.4189 1.87453,0.63156c0.68412,0.2338 1.37216,0.46463 2.04922,0.71891c0.49146,0.18421 0.97849,0.3766 1.46469,0.57109c0.5936,0.23776 1.17961,0.4922 1.76703,0.74578c1.90185,0.82055 3.77176,1.69928 5.58328,2.67406c0.18449,0.09922 0.36053,0.21491 0.54422,0.31578c1.73072,0.95101 3.41326,1.97858 5.0525,3.06375c0.25421,0.16823 0.51368,0.32557 0.76594,0.49719c1.70962,1.16329 3.3663,2.39958 4.96515,3.70203c0.3026,0.2468 0.59461,0.50707 0.8936,0.75922c1.35475,1.14086 2.66443,2.33104 3.93047,3.56766c0.2841,0.27833 0.58,0.54274 0.86,0.8264c1.31788,1.33064 2.56491,2.72852 3.77594,4.15891c0.4993,0.59254 0.9823,1.20228 1.46469,1.81406c0.74387,0.9387 1.45289,1.90616 2.15,2.88235c0.88361,1.24364 1.73269,2.52194 2.54641,3.83641c0.49986,0.8044 1.00275,1.60676 1.4714,2.43219c0.47607,0.8403 0.93816,1.6821 1.37735,2.53297c0.66131,1.28227 1.28912,2.58394 1.87453,3.91031c0.95404,2.15124 1.80205,4.32671 2.53297,6.5239l0.01344,0.04031c0.00354,0.01078 0.00318,0.02281 0.00672,0.03359c0.30506,0.9203 0.58015,1.84836 0.84656,2.77485c0.10355,0.36497 0.21109,0.72779 0.30906,1.09515c0.16819,0.62156 0.31928,1.24407 0.47031,1.86781c0.14632,0.61414 0.29262,1.22739 0.42328,1.84765c0.09024,0.42073 0.17276,0.84168 0.25531,1.26313c0.17248,0.89777 0.33779,1.79805 0.47703,2.70765c0.00587,0.03837 0.01434,0.07583 0.02015,0.11422c0.00655,0.04225 0.00697,0.0854 0.01344,0.12766c0.14901,0.99574 0.27458,2.00098 0.38297,3.01c0.17179,1.55705 0.27917,3.11221 0.34937,4.66953c0.0401,0.9222 0.06148,1.85035 0.06719,2.78156c0.00962,1.46537 -0.01524,2.92857 -0.09406,4.38734c-0.04585,0.86796 -0.11904,1.72745 -0.19485,2.58672c-0.14108,1.56741 -0.30893,3.13106 -0.55094,4.68297c-0.10129,0.65916 -0.23059,1.30889 -0.34938,1.96188c-0.31726,1.72249 -0.67487,3.43947 -1.11531,5.13312c-0.11313,0.43819 -0.24176,0.86859 -0.36281,1.30344c-0.5243,1.87205 -1.10039,3.73157 -1.77375,5.5564c-0.08006,0.21746 -0.17323,0.42854 -0.25531,0.645c-0.52866,1.39147 -1.13915,2.7471 -1.7536,4.10515c-0.49981,1.10493 -1.01932,2.19815 -1.57219,3.27203c-0.49598,0.96371 -1.02529,1.91326 -1.56547,2.85547c-0.85987,1.4987 -1.71886,3.00004 -2.68078,4.42766c-1.24072,1.84138 -2.57624,3.61409 -3.9775,5.32797c-0.09009,0.11005 -0.17124,0.22637 -0.26203,0.33594c-1.32667,1.60318 -2.73347,3.13482 -4.1925,4.61578c-0.19826,0.20063 -0.39031,0.40613 -0.59125,0.60469c-1.33893,1.32749 -2.74573,2.5836 -4.18578,3.80281c-0.39785,0.33525 -0.7894,0.67343 -1.19594,1.0011c-1.2868,1.04239 -2.62563,2.02338 -3.98422,2.9764c-0.67535,0.47134 -1.35327,0.93964 -2.04922,1.39078c-1.21828,0.79335 -2.4672,1.54404 -3.73563,2.26422c-0.8403,0.47607 -1.6821,0.93817 -2.53297,1.37735c-1.28227,0.66131 -2.58394,1.28912 -3.91031,1.87453c-2.15124,0.95399 -4.32671,1.80214 -6.5239,2.53297l-0.04031,0.01344c-0.01078,0.00354 -0.02281,0.00318 -0.03359,0.00672c-0.9203,0.30503 -1.84836,0.58019 -2.77485,0.84656c-0.36497,0.10355 -0.72779,0.21109 -1.09515,0.30906c-0.62156,0.16815 -1.24407,0.31932 -1.86781,0.47031c-0.61414,0.14632 -1.22739,0.29262 -1.84765,0.42328c-0.42073,0.09022 -0.84168,0.17279 -1.26313,0.25531c-0.89777,0.17248 -1.79805,0.33779 -2.70765,0.47703c-0.03837,0.00587 -0.07583,0.01434 -0.11422,0.02015c-0.04225,0.00654 -0.0854,0.00697 -0.12766,0.01344c-0.99574,0.14901 -2.00098,0.27458 -3.01,0.38297c-1.55705,0.17168 -3.11221,0.27928 -4.66953,0.34937c-0.9222,0.0401 -1.85035,0.06148 -2.78156,0.06719c-1.46537,0.0095 -2.92857,-0.01512 -4.38734,-0.09406c-0.85675,-0.04526 -1.70484,-0.1204 -2.55313,-0.19485c-1.61468,-0.14472 -3.22587,-0.31929 -4.82406,-0.5711c-0.57519,-0.08927 -1.1428,-0.19973 -1.71328,-0.30234c-1.7728,-0.32304 -3.53855,-0.68874 -5.28094,-1.14219c-0.43609,-0.11263 -0.86395,-0.24234 -1.29672,-0.36281c-1.87205,-0.52447 -3.73157,-1.10022 -5.5564,-1.77375c-0.21277,-0.07834 -0.41976,-0.16833 -0.63156,-0.2486c-1.42843,-0.5425 -2.81947,-1.17447 -4.21265,-1.80735c-1.03825,-0.47149 -2.06639,-0.95972 -3.07719,-1.47812c-1.03653,-0.53148 -2.05878,-1.09716 -3.07047,-1.67969c-1.4063,-0.81032 -2.81533,-1.61913 -4.15891,-2.51953c-0.07284,-0.04881 -0.14903,-0.09201 -0.22172,-0.1411c-1.7722,-1.19705 -3.47916,-2.48363 -5.13313,-3.82969c-0.1743,-0.14202 -0.35095,-0.27949 -0.52406,-0.42328c-1.54294,-1.27991 -3.01826,-2.63517 -4.44781,-4.03797c-0.2518,-0.24783 -0.51066,-0.48704 -0.75922,-0.73906c-1.28154,-1.29516 -2.4947,-2.65507 -3.67516,-4.04469c-0.3779,-0.44691 -0.76045,-0.88585 -1.12875,-1.34375c-1.00786,-1.24688 -1.95824,-2.5424 -2.88234,-3.85656c-0.50152,-0.71677 -0.99939,-1.43686 -1.47812,-2.17687c-0.7675,-1.18119 -1.4915,-2.39315 -2.19031,-3.62141c-0.49834,-0.87769 -0.97975,-1.75797 -1.43781,-2.64719c-0.64324,-1.25006 -1.25632,-2.5176 -1.8275,-3.80953c-0.9684,-2.17956 -1.82733,-4.38453 -2.56656,-6.61125c-0.31802,-0.95794 -0.60403,-1.92443 -0.88016,-2.88906c-0.08981,-0.31808 -0.18317,-0.63417 -0.26875,-0.95406c-0.18141,-0.66825 -0.34234,-1.33815 -0.50391,-2.00891c-0.13557,-0.57215 -0.27442,-1.14253 -0.39641,-1.72c-0.09763,-0.4538 -0.18007,-0.90927 -0.26875,-1.3639c-0.16582,-0.86702 -0.32876,-1.73554 -0.46359,-2.6136c-0.01652,-0.10516 -0.03098,-0.21059 -0.04703,-0.31578c-0.14582,-0.97814 -0.26962,-1.96529 -0.37625,-2.95625c-0.17287,-1.56361 -0.27898,-3.1258 -0.34938,-4.68969c-0.04001,-0.92222 -0.06156,-1.85033 -0.06719,-2.78156c-0.00949,-1.46301 0.01537,-2.9242 0.09406,-4.38062c0.04561,-0.86348 0.11958,-1.7184 0.19484,-2.57328c0.144,-1.60316 0.31479,-3.20358 0.56438,-4.79047c0.09131,-0.58913 0.21047,-1.16941 0.31578,-1.7536c0.32222,-1.76512 0.68393,-3.51912 1.13547,-5.25406c0.11263,-0.43609 0.24234,-0.86395 0.36281,-1.29672c0.52447,-1.87187 1.10022,-3.73175 1.77375,-5.5564c0.07934,-0.2155 0.17399,-0.42377 0.25531,-0.63828c0.53582,-1.41021 1.15654,-2.78975 1.78047,-4.16562c0.4833,-1.06602 0.98572,-2.12072 1.51844,-3.15781c0.5229,-1.01828 1.07389,-2.02242 1.64609,-3.01672c0.81304,-1.41187 1.62915,-2.82367 2.53297,-4.17235c0.04881,-0.07284 0.09201,-0.14904 0.14109,-0.22172c1.19705,-1.7722 2.48363,-3.47916 3.82969,-5.13313c0.14202,-0.17428 0.27948,-0.35096 0.42328,-0.52406c1.27991,-1.54294 2.63517,-3.01826 4.03797,-4.44781c0.24783,-0.25179 0.48704,-0.51067 0.73906,-0.75922c1.29516,-1.28154 2.65507,-2.4947 4.04469,-3.67516c0.44691,-0.37788 0.88585,-0.76047 1.34375,-1.12875c1.24688,-1.00786 2.5424,-1.95824 3.85656,-2.88234c0.71677,-0.5015 1.43686,-0.9994 2.17687,-1.47812c1.15932,-0.75329 2.34954,-1.46286 3.55422,-2.15c1.27588,-0.72619 2.57024,-1.38793 3.87,-2.02906c0.53088,-0.26131 1.0608,-0.52409 1.59906,-0.77266c4.54822,-2.10822 9.21888,-3.71548 13.94813,-4.82406c0.36701,-0.08459 0.7327,-0.16957 1.10187,-0.24859c1.41586,-0.30859 2.83683,-0.57786 4.25969,-0.79953c0.01775,-0.00277 0.036,-0.00397 0.05375,-0.00672c0.75081,-0.1137 1.51249,-0.19824 2.27094,-0.28891c0.62977,-0.07723 1.25776,-0.14778 1.88797,-0.20828c1.00729,-0.09397 2.01757,-0.17572 3.03687,-0.22844c0.14333,-0.00768 0.28668,-0.00661 0.43,-0.01344c1.13311,-0.05203 2.27316,-0.08734 3.41985,-0.08734zM108.36,34.4c-5.30319,0 -9.7928,3.52117 -11.38156,8.31781c-3.55142,-0.94068 -7.26258,-1.43781 -10.98515,-1.43781c-20.88021,0 -38.27955,14.00942 -43.39641,33.12344c-0.97743,-0.25937 -1.98217,-0.44344 -3.03687,-0.44344c-6.60876,0 -12.04,5.43124 -12.04,12.04c0,6.60876 5.43124,12.04 12.04,12.04c1.0547,0 2.05945,-0.18407 3.03687,-0.44344c5.11685,19.11402 22.5162,33.12344 43.39641,33.12344c3.72258,0 7.43375,-0.49713 10.98515,-1.43781c1.58876,4.79665 6.07837,8.31781 11.38156,8.31781c6.60876,0 12.04,-5.43124 12.04,-12.04c0,-2.9228 -1.10551,-5.57861 -2.86219,-7.67281c8.23335,-8.11512 13.49797,-19.32638 13.49797,-31.88719c0,-12.56081 -5.26462,-23.77207 -13.49797,-31.88719c1.75668,-2.0942 2.86219,-4.75002 2.86219,-7.67281c0,-6.60876 -5.43124,-12.04 -12.04,-12.04zM108.36,41.28c2.89054,0 5.16,2.26946 5.16,5.16c0,2.89054 -2.26946,5.16 -5.16,5.16c-2.89054,0 -5.16,-2.26946 -5.16,-5.16c0,-2.89054 2.26946,-5.16 5.16,-5.16zM85.99328,48.16c3.75437,0 7.48757,0.59562 10.88437,1.69313c1.49246,4.95513 6.06562,8.62687 11.48235,8.62687c1.12148,0 2.1854,-0.21189 3.21828,-0.5039c6.85793,6.24756 11.48564,14.80668 12.37594,24.5839h-10.68281c-1.7128,-13.51291 -13.32453,-24.08 -27.27812,-24.08c-3.78755,0 -7.40227,0.77965 -10.69625,2.1836l-5.16672,-9.10391c4.80733,-2.17436 10.16688,-3.39969 15.86297,-3.39969zM64.13719,54.94594l5.23391,9.20469c-6.59949,5.0422 -10.89781,12.96415 -10.89781,21.84937c0,8.88523 4.29833,16.80717 10.89781,21.84937l-5.23391,9.20469c-7.81814,-5.43107 -13.39468,-13.73474 -15.37922,-23.40813c1.74381,-2.09049 2.84203,-4.73512 2.84203,-7.64594c0,-2.91605 -1.09933,-5.56726 -2.84875,-7.65937c1.98485,-9.66829 7.58296,-17.96141 15.38594,-23.39469zM85.99328,65.36c11.36763,0 20.64,9.27237 20.64,20.64c0,11.36763 -9.27237,20.64 -20.64,20.64c-11.36764,0 -20.64,-9.27237 -20.64,-20.64c0,-11.36763 9.27236,-20.64 20.64,-20.64zM39.56,80.84c2.89054,0 5.16,2.26946 5.16,5.16c0,2.89054 -2.26946,5.16 -5.16,5.16c-2.89054,0 -5.16,-2.26946 -5.16,-5.16c0,-2.89054 2.26946,-5.16 5.16,-5.16zM113.2714,89.44h10.69625c-0.89672,9.77065 -5.5315,18.3364 -12.38937,24.5839c-1.03288,-0.29201 -2.0968,-0.5039 -3.21828,-0.5039c-5.41897,0 -9.99186,3.67533 -11.48235,8.6336c-3.39369,1.09582 -7.1326,1.6864 -10.88437,1.6864c-5.69571,0 -11.05122,-1.23416 -15.86297,-3.4064l5.16672,-9.09719c3.29398,1.40395 6.9087,2.1836 10.69625,2.1836c13.95359,0 25.56533,-10.56709 27.27812,-24.08zM108.36,120.4c2.89054,0 5.16,2.26946 5.16,5.16c0,2.89054 -2.26946,5.16 -5.16,5.16c-2.89054,0 -5.16,-2.26946 -5.16,-5.16c0,-2.89054 2.26946,-5.16 5.16,-5.16z"></path></g></g></svg>
