<svg xmlns="http://www.w3.org/2000/svg" x="0px" y="0px"
width="64" height="64"
viewBox="0 0 172 172"
style=" fill:#000000;"><g fill="none" fill-rule="nonzero" stroke="none" stroke-width="1" stroke-linecap="butt" stroke-linejoin="miter" stroke-miterlimit="10" stroke-dasharray="" stroke-dashoffset="0" font-family="none" font-weight="none" font-size="none" text-anchor="none" style="mix-blend-mode: normal"><path d="M0,172v-172h172v172z" fill="none"></path><g fill="#ffffff"><path d="M94.0625,0c-38.05769,0 -66.3065,25.28938 -67.16651,60.13281c-0.0215,0.84387 -0.15193,1.63669 -0.38843,2.35156l-14.56604,43.69812c-0.516,1.548 -0.31192,3.21958 0.56689,4.59289c0.87881,1.376 2.31352,2.27123 3.93677,2.45129l8.03625,0.89234c1.36256,0.15319 2.39355,1.29844 2.39355,2.67175v24.38696c0,3.81625 1.62879,7.46739 4.47217,10.01514c2.84875,2.54775 6.66949,3.76825 10.45081,3.34363l7.78955,-0.86609h0.00525l14.48206,-1.61145l-1.43298,10.82349c-0.30638,2.30319 0.39452,4.62544 1.92639,6.37232c1.52919,1.74419 3.74062,2.74524 6.06262,2.74524h71.20825c2.28169,0 4.46789,-0.97069 5.99438,-2.66651c1.5265,-1.69581 2.26531,-3.97284 2.02613,-6.24109l-3.86328,-36.68018c-0.3655,-3.49375 0.24267,-6.98175 1.75842,-10.09387c8.82844,-18.0815 13.49524,-37.85948 13.49524,-57.19336c0,-34.81119 -27.6275,-59.125 -67.1875,-59.125zM94.0625,5.375c42.70169,0 61.8125,26.99594 61.8125,53.75c0,18.51956 -4.47578,37.48336 -12.94409,54.83655c-1.95919,4.01781 -2.74583,8.51883 -2.27283,13.01233l3.85803,36.68017c0.07793,0.77131 -0.15844,1.51143 -0.67713,2.08386c-0.516,0.57244 -1.22856,0.88708 -1.99988,0.88708h-71.20825c-0.78744,0 -1.50487,-0.32733 -2.02087,-0.91858c-0.516,-0.59125 -0.74251,-1.34123 -0.64038,-2.1206l1.6062,-12.14099l8.65564,-0.96582c1.47544,-0.16394 2.53906,-1.49026 2.37781,-2.9657c-0.16394,-1.47275 -1.46607,-2.54456 -2.9657,-2.37256l-7.33814,0.8136l-29.10059,3.2334c-2.28706,0.25262 -4.56077,-0.47594 -6.26733,-2.00513c-1.70656,-1.52919 -2.6875,-3.71513 -2.6875,-6.00488v-24.38696c0,-4.11456 -3.08504,-7.55582 -7.17542,-8.01001l-8.03625,-0.89758l14.57129,-43.69812c0.40581,-1.22281 0.62644,-2.54233 0.66137,-3.92102c0.78475,-31.80656 26.77338,-54.88904 61.79151,-54.88904zM94.0625,13.4375c-1.48619,0 -2.6875,1.204 -2.6875,2.6875v5.375c0,1.4835 1.20131,2.6875 2.6875,2.6875c1.48619,0 2.6875,-1.204 2.6875,-2.6875v-5.375c0,-1.4835 -1.20131,-2.6875 -2.6875,-2.6875zM79.48071,15.42688c-0.34614,-0.048 -0.71068,-0.02784 -1.0708,0.06824c-1.43244,0.38431 -2.28446,1.85601 -1.90015,3.29114l1.39099,5.19653c0.31981,1.20131 1.40514,1.98938 2.59302,1.98938c0.23113,0 0.46956,-0.02473 0.70337,-0.08923c1.43244,-0.38431 2.28446,-1.86126 1.90015,-3.29639l-1.39624,-5.19128c-0.28823,-1.07634 -1.18191,-1.82439 -2.22034,-1.96838zM108.65479,15.42688c-1.03616,0.14462 -1.9426,0.89406 -2.23084,1.96838l-1.39624,5.19128c-0.38431,1.43512 0.46771,2.91476 1.90015,3.29639c0.23381,0.06181 0.47224,0.08923 0.70337,0.08923c1.18519,0 2.27321,-0.78807 2.59302,-1.98938l1.39099,-5.19653c0.38431,-1.43512 -0.46771,-2.90683 -1.90015,-3.29114c-0.35609,-0.09608 -0.71492,-0.11644 -1.0603,-0.06824zM64.83594,21.19556c-0.34597,0.04313 -0.688,0.15575 -1.00781,0.34119c-1.28731,0.74175 -1.726,2.38969 -0.98157,3.67432l2.6875,4.65063c0.49988,0.86269 1.40069,1.34375 2.33057,1.34375c0.45687,0 0.91656,-0.11237 1.3385,-0.35693c1.28731,-0.74175 1.726,-2.38969 0.98157,-3.67432l-2.6875,-4.65063c-0.55833,-0.96548 -1.62333,-1.45738 -2.66125,-1.328zM123.28381,21.20081c-1.03931,-0.12938 -2.09969,0.35727 -2.65601,1.32275l-2.6875,4.65588c-0.74444,1.28194 -0.30575,2.92463 0.98157,3.66907c0.42194,0.24456 0.88163,0.36218 1.3385,0.36218c0.92988,0 1.83338,-0.48106 2.33057,-1.34375l2.6875,-4.65588c0.74175,-1.28462 0.30306,-2.92732 -0.98157,-3.66907c-0.32116,-0.18544 -0.66663,-0.29806 -1.01306,-0.34119zM87.54321,37.625c-2.4725,0 -4.61565,1.67599 -5.21228,4.07324l-2.4513,9.79468c-0.95406,0.34938 -1.91472,0.75065 -2.86072,1.19678l-8.67663,-5.20178c-2.11775,-1.27119 -4.81978,-0.94121 -6.56128,0.80835l-5.42224,5.41699c-1.74687,1.74687 -2.07954,4.44878 -0.80835,6.56653l5.20703,8.67663c-0.44881,0.95137 -0.85009,1.90409 -1.19678,2.85547l-9.79993,2.45129c-2.39994,0.602 -4.07324,2.74772 -4.07324,5.21753v7.66882c0,2.46981 1.6733,4.61297 4.07324,5.21228l9.79468,2.45129c0.34938,0.95137 0.74797,1.90409 1.19678,2.85547l-5.20178,8.67663c-1.27119,2.11775 -0.94121,4.81697 0.80835,6.56653l5.41699,5.41699c1.74687,1.74687 4.44609,2.0876 6.56653,0.80835l8.67663,-5.20703c0.94869,0.44881 1.90141,0.8474 2.85547,1.19678l2.45129,9.79993c0.59932,2.39994 2.74503,4.07324 5.21753,4.07324h7.66357c2.4725,0 4.61565,-1.67599 5.21228,-4.07324l2.4513,-9.79468c0.95406,-0.34938 1.91472,-0.75065 2.86072,-1.19678l8.67139,5.20178c2.10969,1.2685 4.81428,0.94121 6.56653,-0.80835l5.42224,-5.41699c1.74419,-1.74956 2.07685,-4.44878 0.80835,-6.56653l-5.20703,-8.67663c0.44881,-0.95137 0.8474,-1.90141 1.19678,-2.85547l9.79993,-2.45129c2.39994,-0.59931 4.07324,-2.74503 4.07324,-5.21753v-7.66882c0,-2.46712 -1.6733,-4.60772 -4.07324,-5.20703l-9.79993,-2.4513c-0.34669,-0.95406 -0.74797,-1.90934 -1.19678,-2.86072l5.20703,-8.67139c1.27388,-2.11775 0.94121,-4.81966 -0.80835,-6.56653l-5.42224,-5.42224c-1.74956,-1.74687 -4.45147,-2.07416 -6.56653,-0.80835l-8.67139,5.20703c-0.94869,-0.44881 -1.90665,-0.8474 -2.86072,-1.19678l-2.4513,-9.79993c-0.59663,-2.39725 -2.73978,-4.07324 -5.21228,-4.07324zM87.54321,43h7.66882l2.80298,11.22241c0.22575,0.91106 0.91598,1.63908 1.81091,1.91589c1.58831,0.4945 3.19111,1.1615 4.77136,1.99463c0.83313,0.43269 1.82876,0.40758 2.63501,-0.07348l9.9364,-5.96289l5.42224,5.41699l-5.96289,9.94165c-0.48375,0.80356 -0.51155,1.80457 -0.07348,2.63501c0.83581,1.591 1.50819,3.1938 1.99463,4.77136c0.2795,0.89762 1.00214,1.58772 1.91589,1.81616l11.22241,2.80298v7.66357l-11.22241,2.80823c-0.91375,0.22844 -1.63639,0.91329 -1.91589,1.81091c-0.48913,1.57756 -1.1615,3.18036 -1.99463,4.77136c-0.43806,0.83044 -0.40758,1.83145 0.07348,2.63501l5.96289,9.9364l-5.42224,5.42224l-9.9364,-5.96289c-0.80625,-0.48106 -1.80189,-0.51142 -2.63501,-0.07873c-1.57756,0.83043 -3.18305,1.50269 -4.77136,1.99988c-0.89763,0.2795 -1.58516,1.00752 -1.81091,1.91589l-2.80823,11.22241h-7.66882l-2.80298,-11.22241c-0.22575,-0.90838 -0.91598,-1.63639 -1.81091,-1.91589c-1.59369,-0.4945 -3.19649,-1.16419 -4.77136,-1.99463c-0.39238,-0.20694 -0.82452,-0.30969 -1.25452,-0.30969c-0.48106,0 -0.95318,0.12787 -1.38049,0.38318l-9.94165,5.96289l-5.41699,-5.41699l5.96289,-9.94165c0.48375,-0.80356 0.51155,-1.79932 0.07348,-2.62976c-0.83581,-1.591 -1.50819,-3.19905 -1.99463,-4.77661c-0.2795,-0.89763 -1.00214,-1.58248 -1.91589,-1.81091l-11.22241,-2.80823l-0.00525,-7.66357l11.22766,-2.80823c0.91375,-0.22844 1.63639,-0.91329 1.91589,-1.81091c0.48913,-1.57487 1.1615,-3.18561 1.99463,-4.77661c0.43806,-0.83044 0.40758,-1.8262 -0.07348,-2.62976l-5.96289,-9.94165l5.42224,-5.41699l9.9364,5.96289c0.80894,0.48375 1.81264,0.51423 2.63501,0.07348c1.57756,-0.83044 3.18305,-1.50282 4.77136,-1.99463c0.89762,-0.2795 1.58516,-1.00752 1.81091,-1.91589zM91.375,69.875c-7.40944,0 -13.4375,6.02806 -13.4375,13.4375c0,7.40944 6.02806,13.4375 13.4375,13.4375c7.40944,0 13.4375,-6.02806 13.4375,-13.4375c0,-7.40944 -6.02806,-13.4375 -13.4375,-13.4375zM91.375,75.25c4.44513,0 8.0625,3.61737 8.0625,8.0625c0,4.44513 -3.61737,8.0625 -8.0625,8.0625c-4.44513,0 -8.0625,-3.61737 -8.0625,-8.0625c0,-4.44513 3.61737,-8.0625 8.0625,-8.0625z"></path></g></g></svg>
