<svg xmlns="http://www.w3.org/2000/svg" x="0px" y="0px"
width="100" height="100"
viewBox="0 0 172 172"
style=" fill:#000000;"><g fill="none" fill-rule="nonzero" stroke="none" stroke-width="1" stroke-linecap="butt" stroke-linejoin="miter" stroke-miterlimit="10" stroke-dasharray="" stroke-dashoffset="0" font-family="none" font-weight="none" font-size="none" text-anchor="none" style="mix-blend-mode: normal"><path d="M0,172v-172h172v172z" fill="none"></path><g fill="#ffffff"><path d="M39.58016,24.08c-0.46263,-0.00006 -0.90579,0.18623 -1.22942,0.51682c-0.32364,0.33059 -0.50047,0.7776 -0.49058,1.24013c0.35357,15.94851 5.61395,28.24879 13.75328,38.51188c6.45573,8.14019 14.69877,15.02352 23.7407,21.65453c-20.44326,15.00927 -36.8593,31.56296 -37.49398,60.15969c-0.00989,0.46253 0.16694,0.90954 0.49058,1.24013c0.32364,0.33059 0.76679,0.51688 1.22942,0.51682h8.60672c0.92925,-0.00151 1.68933,-0.74076 1.71664,-1.66961c0.03409,-1.19225 0.11696,-2.34869 0.22172,-3.49039h71.4875c0.09961,1.14011 0.17912,2.29643 0.21164,3.48703c0.02557,0.93147 0.78818,1.67323 1.72,1.67297h8.87547c0.46323,0.00008 0.90691,-0.18667 1.23065,-0.518c0.32374,-0.33132 0.50016,-0.77921 0.48935,-1.24232c-0.36784,-16.08735 -5.84261,-28.60086 -14.07578,-38.97547c-6.36496,-8.02048 -14.35377,-14.78516 -22.92102,-21.12711c19.63462,-14.53425 36.35062,-31.53596 36.9968,-60.2168c0.01081,-0.4631 -0.16562,-0.91099 -0.48935,-1.24232c-0.32374,-0.33132 -0.76742,-0.51808 -1.23065,-0.518h-8.6c-0.93182,-0.00026 -1.69443,0.74149 -1.72,1.67297c-0.03178,1.19185 -0.10746,2.34793 -0.20492,3.48703h-9.23492c-0.31015,-0.00439 -0.59863,0.15856 -0.75498,0.42645c-0.15635,0.26789 -0.15635,0.59921 0,0.8671c0.15635,0.26789 0.44484,0.43084 0.75498,0.42645h9.06359c-0.35531,3.04051 -0.94973,5.89628 -1.76031,8.6h-67.88625c-0.82665,-2.70438 -1.43152,-5.56038 -1.79391,-8.6h45.17688c0.31015,0.00439 0.59863,-0.15856 0.75498,-0.42645c0.15635,-0.26789 0.15635,-0.59921 0,-0.8671c-0.15635,-0.26789 -0.44484,-0.43084 -0.75498,-0.42645h-45.35156c-0.09945,-1.13913 -0.17583,-2.29525 -0.20828,-3.48703c-0.02557,-0.93147 -0.78818,-1.67323 -1.72,-1.67297zM41.4782,27.52h5.16672c0.70796,12.73373 5.18156,22.86722 12.24156,31.49414c7.38028,9.01828 17.40525,16.53081 28.62187,24.36555c11.33817,7.92026 21.9989,16.03347 29.86148,25.9411c7.54382,9.50595 12.44423,20.7107 13.14859,35.15922h-5.43883c-0.72096,-12.95649 -5.33593,-23.30596 -12.43305,-32.03164c-7.41352,-9.11467 -17.36257,-16.59631 -28.11461,-24.11023c-11.78423,-8.23061 -22.46223,-16.33847 -30.2243,-26.12586c-7.4448,-9.38734 -12.14988,-20.37085 -12.82945,-34.69227zM125.36516,27.52h5.16672c-1.27992,26.66472 -16.99844,42.25996 -36.29805,56.41063c-1.5725,-1.13267 -3.15645,-2.25718 -4.75351,-3.37281c-0.10065,-0.0703 -0.19185,-0.13805 -0.29227,-0.20828c9.74318,-6.99117 18.38474,-13.93668 24.81906,-22.19203c6.56219,-8.4194 10.68739,-18.3118 11.35805,-30.6375zM100.62,29.24c-0.31015,-0.00439 -0.59863,0.15856 -0.75498,0.42645c-0.15635,0.26789 -0.15635,0.59921 0,0.8671c0.15635,0.26789 0.44484,0.43084 0.75498,0.42645h6.88c0.31015,0.00439 0.59863,-0.15856 0.75498,-0.42645c0.15635,-0.26789 0.15635,-0.59921 0,-0.8671c-0.15635,-0.26789 -0.44484,-0.43084 -0.75498,-0.42645zM52.63469,41.28h66.77766c-1.86088,5.4399 -4.61896,10.2697 -8.11961,14.76109c-1.10774,1.42124 -2.31559,2.79935 -3.56766,4.15891h-43.22172c-1.02938,-1.103 -2.02213,-2.2213 -2.95625,-3.36273c-1.38386,-1.691 -2.62997,-3.44233 -3.79273,-5.23727h51.46563c0.31015,0.00439 0.59863,-0.15856 0.75498,-0.42645c0.15635,-0.26789 0.15635,-0.59921 0,-0.8671c-0.15635,-0.26789 -0.44484,-0.43084 -0.75498,-0.42645h-52.56078c-1.60806,-2.71007 -2.96375,-5.55739 -4.02453,-8.6zM66.18305,61.92h39.93289c-2.89657,2.95886 -6.11692,5.80082 -9.60109,8.6h-20.63664c-3.51647,-2.80328 -6.76709,-5.64737 -9.69515,-8.6zM78.05508,72.24h16.26274c-2.57657,1.99978 -5.27408,3.99068 -8.08266,5.99313c-2.8166,-2.00238 -5.59234,-3.99785 -8.18008,-5.99313zM78.27008,88.12648c1.41625,1.01361 2.84692,2.02331 4.29328,3.03352c0.25916,0.18111 0.4979,0.36325 0.75586,0.54422c-8.40309,5.94084 -17.02787,12.43224 -23.85492,20.65008c-7.05701,8.49465 -12.03475,18.93849 -12.80258,32.1257h-5.19695c1.25718,-26.57143 16.66406,-41.69623 36.80531,-56.35352zM86.26875,93.82063c2.75265,1.96879 5.47354,3.93855 8.02891,5.93938h-16.19219c2.68941,-2.05025 5.43006,-4.01536 8.16328,-5.93938zM75.89836,101.48h20.53922c3.41462,2.77176 6.59045,5.61879 9.46672,8.6h-39.7011c3.01573,-3.06261 6.28884,-5.90752 9.69516,-8.6zM64.54031,111.8h42.99328c0.84065,0.92651 1.66394,1.86159 2.44227,2.81852c1.5112,1.85797 2.87773,3.78824 4.13539,5.78148h-4.89125c-0.31015,-0.00439 -0.59863,0.15856 -0.75498,0.42645c-0.15635,0.26789 -0.15635,0.59921 0,0.8671c0.15635,0.26789 0.44484,0.43084 0.75498,0.42645h5.93602c1.56949,2.71109 2.91252,5.55621 3.95734,8.6h-66.39133c1.08374,-3.06246 2.46989,-5.90749 4.06148,-8.6h36.95648c0.31015,0.00439 0.59863,-0.15856 0.75498,-0.42645c0.15635,-0.26789 0.15635,-0.59921 0,-0.8671c-0.15635,-0.26789 -0.44484,-0.43084 -0.75498,-0.42645h-35.90164c1.30927,-2.03487 2.72807,-3.98886 4.27312,-5.84867c0.78055,-0.93956 1.59688,-1.85192 2.42883,-2.75133zM98.9,120.4c-0.31015,-0.00439 -0.59863,0.15856 -0.75498,0.42645c-0.15635,0.26789 -0.15635,0.59921 0,0.8671c0.15635,0.26789 0.44484,0.43084 0.75498,0.42645h5.16c0.31015,0.00439 0.59863,-0.15856 0.75498,-0.42645c0.15635,-0.26789 0.15635,-0.59921 0,-0.8671c-0.15635,-0.26789 -0.44484,-0.43084 -0.75498,-0.42645zM52.15094,132.44h67.51336c0.81695,2.7089 1.41615,5.56687 1.77711,8.6h-71.13477c0.37863,-3.0364 1.00194,-5.8973 1.8443,-8.6z"></path></g></g></svg>
