<svg xmlns="http://www.w3.org/2000/svg" x="0px" y="0px"
width="50" height="50"
viewBox="0 0 172 172"
style=" fill:#000000;"><g fill="none" fill-rule="nonzero" stroke="none" stroke-width="1" stroke-linecap="butt" stroke-linejoin="miter" stroke-miterlimit="10" stroke-dasharray="" stroke-dashoffset="0" font-family="none" font-weight="none" font-size="none" text-anchor="none" style="mix-blend-mode: normal"><path d="M0,172v-172h172v172z" fill="none"></path><g fill="#ffffff"><path d="M41.28,17.2c-5.6587,0 -10.32,4.6613 -10.32,10.32v4.13875c-5.86989,1.56986 -10.32,6.71929 -10.32,13.06125v45.74797c-3.49136,1.10676 -6.40885,3.04517 -8.59328,5.50266c-3.49712,3.93426 -5.16672,9.04493 -5.16672,14.10937c0,5.06444 1.6696,10.17511 5.16672,14.10937c2.18443,2.45748 5.10192,4.3959 8.59328,5.50266v18.22797h-17.2v6.88h158.24h6.88v-3.44v-3.44h-10.32v-65.36h-3.66172l-3.44,-51.6h-16.75656l-3.44,51.6h-13.98172h-6.88v-55.04c0,-5.6587 -4.6613,-10.32 -10.32,-10.32h-27.52h-3.44zM41.28,24.08h24.08v7.57875c-5.86989,1.56986 -10.32,6.71929 -10.32,13.06125v45.74797c-2.65193,0.84066 -4.95927,2.17391 -6.88,3.8364v-49.58437c0,-6.34196 -4.45011,-11.49139 -10.32,-13.06125v-4.13875c0,-1.9437 1.4963,-3.44 3.44,-3.44zM72.24,24.08h27.52c1.9437,0 3.44,1.4963 3.44,3.44v55.04h-20.64v-37.84c0,-6.34196 -4.45011,-11.49139 -10.32,-13.06125zM34.4,37.84c3.84133,0 6.88,3.03867 6.88,6.88v17.2h-13.76v-17.2c0,-3.84133 3.03867,-6.88 6.88,-6.88zM68.8,37.84c3.84133,0 6.88,3.03867 6.88,6.88v17.2h-13.76v-17.2c0,-3.84133 3.03867,-6.88 6.88,-6.88zM140.81828,37.84h3.88344l3.44,51.6h3.21828v58.48h-68.8v-37.84v-20.64h34.4h20.41828h3.66172v-6.88h-3.20485zM27.52,68.8h13.76v25.95453c-3.65935,-3.29037 -8.47748,-5.31453 -13.76,-5.31453zM61.92,68.8h13.76v25.95453c-3.65935,-3.29037 -8.47748,-5.31453 -13.76,-5.31453zM27.52,96.32c7.64019,0 13.76,6.11981 13.76,13.76c0,7.64019 -6.11981,13.76 -13.76,13.76c-4.87333,0 -8.09051,-1.70364 -10.32672,-4.21937c-2.23621,-2.51574 -3.43328,-6.00507 -3.43328,-9.54063c0,-3.53556 1.19707,-7.02489 3.43328,-9.54063c2.23621,-2.51573 5.45339,-4.21937 10.32672,-4.21937zM61.92,96.32c7.64019,0 13.76,6.11981 13.76,13.76c0,7.64019 -6.11981,13.76 -13.76,13.76c-4.87333,0 -8.09051,-1.70364 -10.32672,-4.21937c-2.23621,-2.51574 -3.43328,-6.00507 -3.43328,-9.54063c0,-3.53556 1.19708,-7.02489 3.43328,-9.54063c2.23621,-2.51573 5.45339,-4.21937 10.32672,-4.21937zM89.44,99.76v6.88h13.76v-6.88zM110.08,99.76v6.88h13.76v-6.88zM130.72,99.76v6.88h13.76v-6.88zM41.28,125.40547v22.51453h-13.76v-17.2c5.28252,0 10.10065,-2.02416 13.76,-5.31453zM75.68,125.40547v22.51453h-13.76v-17.2c5.28252,0 10.10065,-2.02416 13.76,-5.31453zM48.16,125.85563c1.92073,1.6625 4.22807,2.99574 6.88,3.8364v18.22797h-6.88z"></path></g></g></svg>
