<svg xmlns="http://www.w3.org/2000/svg" x="0px" y="0px"
width="80" height="80"
viewBox="0 0 172 172"
style=" fill:#000000;"><g fill="none" fill-rule="nonzero" stroke="none" stroke-width="1" stroke-linecap="butt" stroke-linejoin="miter" stroke-miterlimit="10" stroke-dasharray="" stroke-dashoffset="0" font-family="none" font-weight="none" font-size="none" text-anchor="none" style="mix-blend-mode: normal"><path d="M0,172v-172h172v172z" fill="none"></path><g fill="#ffffff"><path d="M65.575,12.9c-4.13203,0 -7.525,3.39297 -7.525,7.525c0,3.7541 2.84707,6.76074 6.45,7.30664v31.88887l-45.64551,78.84453c-1.0834,1.87285 -1.65449,3.99766 -1.65449,6.16445c0,6.77754 5.54297,12.32051 12.32051,12.32051h112.95898c6.77754,0 12.32051,-5.54297 12.32051,-12.32051c0,-2.1668 -0.57109,-4.2916 -1.65449,-6.16445l-45.64551,-78.84453v-31.88887c3.60293,-0.5459 6.45,-3.55254 6.45,-7.30664c0,-4.13203 -3.39297,-7.525 -7.525,-7.525zM65.575,17.2h40.85c1.80566,0 3.225,1.41934 3.225,3.225c0,1.80566 -1.41934,3.225 -3.225,3.225h-3.225c-1.18418,0 -2.15,0.96582 -2.15,2.15c0,1.18418 0.96582,2.15 2.15,2.15v32.82949l12.18613,21.04649c-0.85664,0.30234 -1.43613,1.11699 -1.43613,2.02402c0,1.18418 0.96582,2.15 2.15,2.15c0.5123,0 1.00781,-0.18476 1.40254,-0.5123l31.92246,55.12734c0.69707,1.21777 1.075,2.60351 1.075,4.01445c0,4.45117 -3.56934,8.02051 -8.02051,8.02051h-112.95898c-4.45117,0 -8.02051,-3.56934 -8.02051,-8.02051c0,-1.41094 0.37793,-2.79668 1.075,-4.01445l31.92246,-55.13574c0.39473,0.33594 0.89024,0.5207 1.40254,0.5207c1.18418,0 2.15,-0.96582 2.15,-2.15c0,-0.90703 -0.57949,-1.72168 -1.43613,-2.02402l12.18613,-21.04649v-32.82949c1.18418,0 2.15,-0.96582 2.15,-2.15c0,-1.18418 -0.96582,-2.15 -2.15,-2.15h-3.225c-1.80566,0 -3.225,-1.41934 -3.225,-3.225c0,-1.80566 1.41934,-3.225 3.225,-3.225zM77.4,23.65c-1.18418,0 -2.15,0.96582 -2.15,2.15c0,1.18418 0.96582,2.15 2.15,2.15c1.18418,0 2.15,-0.96582 2.15,-2.15c0,-1.18418 -0.96582,-2.15 -2.15,-2.15zM86,23.65c-1.18418,0 -2.15,0.96582 -2.15,2.15c0,1.18418 0.96582,2.15 2.15,2.15c1.18418,0 2.15,-0.96582 2.15,-2.15c0,-1.18418 -0.96582,-2.15 -2.15,-2.15zM94.6,23.65c-1.18418,0 -2.15,0.96582 -2.15,2.15c0,1.18418 0.96582,2.15 2.15,2.15c1.18418,0 2.15,-0.96582 2.15,-2.15c0,-1.18418 -0.96582,-2.15 -2.15,-2.15zM88.15,47.3c-4.72832,0 -8.6,3.87168 -8.6,8.6c0,4.72832 3.87168,8.6 8.6,8.6c4.72832,0 8.6,-3.87168 8.6,-8.6c0,-4.72832 -3.87168,-8.6 -8.6,-8.6zM88.15,51.6c2.40195,0 4.3,1.89805 4.3,4.3c0,2.40195 -1.89805,4.3 -4.3,4.3c-2.40195,0 -4.3,-1.89805 -4.3,-4.3c0,-2.40195 1.89805,-4.3 4.3,-4.3zM64.5,81.7c-1.18418,0 -2.15,0.96582 -2.15,2.15c0,1.18418 0.96582,2.15 2.15,2.15c1.18418,0 2.15,-0.96582 2.15,-2.15c0,-1.18418 -0.96582,-2.15 -2.15,-2.15zM73.1,81.7c-1.18418,0 -2.15,0.96582 -2.15,2.15c0,1.18418 0.96582,2.15 2.15,2.15c1.18418,0 2.15,-0.96582 2.15,-2.15c0,-1.18418 -0.96582,-2.15 -2.15,-2.15zM81.7,81.7c-1.18418,0 -2.15,0.96582 -2.15,2.15c0,1.18418 0.96582,2.15 2.15,2.15c1.18418,0 2.15,-0.96582 2.15,-2.15c0,-1.18418 -0.96582,-2.15 -2.15,-2.15zM90.3,81.7c-1.18418,0 -2.15,0.96582 -2.15,2.15c0,1.18418 0.96582,2.15 2.15,2.15c1.18418,0 2.15,-0.96582 2.15,-2.15c0,-1.18418 -0.96582,-2.15 -2.15,-2.15zM98.9,81.7c-1.18418,0 -2.15,0.96582 -2.15,2.15c0,1.18418 0.96582,2.15 2.15,2.15c1.18418,0 2.15,-0.96582 2.15,-2.15c0,-1.18418 -0.96582,-2.15 -2.15,-2.15zM107.5,81.7c-1.18418,0 -2.15,0.96582 -2.15,2.15c0,1.18418 0.96582,2.15 2.15,2.15c1.18418,0 2.15,-0.96582 2.15,-2.15c0,-1.18418 -0.96582,-2.15 -2.15,-2.15zM75.25,92.45c-4.72832,0 -8.6,3.87168 -8.6,8.6c0,4.72832 3.87168,8.6 8.6,8.6c4.72832,0 8.6,-3.87168 8.6,-8.6c0,-4.72832 -3.87168,-8.6 -8.6,-8.6zM75.25,96.75c2.40195,0 4.3,1.89805 4.3,4.3c0,2.40195 -1.89805,4.3 -4.3,4.3c-2.40195,0 -4.3,-1.89805 -4.3,-4.3c0,-2.40195 1.89805,-4.3 4.3,-4.3zM103.2,113.95c-4.72832,0 -8.6,3.87168 -8.6,8.6c0,4.72832 3.87168,8.6 8.6,8.6c4.72832,0 8.6,-3.87168 8.6,-8.6c0,-4.72832 -3.87168,-8.6 -8.6,-8.6zM103.2,118.25c2.40195,0 4.3,1.89805 4.3,4.3c0,2.40195 -1.89805,4.3 -4.3,4.3c-2.40195,0 -4.3,-1.89805 -4.3,-4.3c0,-2.40195 1.89805,-4.3 4.3,-4.3z"></path></g></g></svg>
