<svg xmlns="http://www.w3.org/2000/svg" x="0px" y="0px"
width="64" height="64"
viewBox="0 0 172 172"
style=" fill:#000000;"><g fill="none" fill-rule="nonzero" stroke="none" stroke-width="1" stroke-linecap="butt" stroke-linejoin="miter" stroke-miterlimit="10" stroke-dasharray="" stroke-dashoffset="0" font-family="none" font-weight="none" font-size="none" text-anchor="none" style="mix-blend-mode: normal"><path d="M0,172v-172h172v172z" fill="none"></path><g fill="#ffffff"><path d="M72.5625,10.75c-2.96431,0 -5.375,2.41069 -5.375,5.375v8.0625h-34.9375c-4.44513,0 -8.0625,3.61737 -8.0625,8.0625c0,1.4835 1.20131,2.6875 2.6875,2.6875c1.48619,0 2.6875,-1.204 2.6875,-2.6875c0,-1.48081 1.204,-2.6875 2.6875,-2.6875h34.9375v8.0625c0,2.96431 2.41069,5.375 5.375,5.375h26.875c2.96431,0 5.375,-2.41069 5.375,-5.375v-21.5c0,-2.96431 -2.41069,-5.375 -5.375,-5.375zM72.5625,16.125h26.875l0.00525,21.5h-26.88025zM115.5625,21.5c-1.48619,0 -2.6875,1.204 -2.6875,2.6875v5.375c0,1.4835 1.20131,2.6875 2.6875,2.6875c1.48619,0 2.6875,-1.204 2.6875,-2.6875v-5.375c0,-1.4835 -1.20131,-2.6875 -2.6875,-2.6875zM129,21.5c-1.48619,0 -2.6875,1.204 -2.6875,2.6875v5.375c0,1.4835 1.20131,2.6875 2.6875,2.6875c1.48619,0 2.6875,-1.204 2.6875,-2.6875v-5.375c0,-1.4835 -1.20131,-2.6875 -2.6875,-2.6875zM139.75,24.1875c-1.48619,0 -2.6875,1.204 -2.6875,2.6875c0,1.4835 1.20131,2.6875 2.6875,2.6875c1.4835,0 2.6875,1.20669 2.6875,2.6875v34.9375h-8.0625c-2.96431,0 -5.375,2.41069 -5.375,5.375v26.875c0,2.96431 2.41069,5.375 5.375,5.375h21.5c2.96431,0 5.375,-2.41069 5.375,-5.375v-26.875c0,-2.96431 -2.41069,-5.375 -5.375,-5.375h-8.0625v-34.9375c0,-4.44513 -3.61737,-8.0625 -8.0625,-8.0625zM24.1875,40.3125c-1.48619,0 -2.6875,1.204 -2.6875,2.6875c0,1.4835 1.20131,2.6875 2.6875,2.6875h5.375c1.48619,0 2.6875,-1.204 2.6875,-2.6875c0,-1.4835 -1.20131,-2.6875 -2.6875,-2.6875zM24.1875,53.75c-1.48619,0 -2.6875,1.204 -2.6875,2.6875c0,1.4835 1.20131,2.6875 2.6875,2.6875h5.375c1.48619,0 2.6875,-1.204 2.6875,-2.6875c0,-1.4835 -1.20131,-2.6875 -2.6875,-2.6875zM16.125,67.1875c-2.96431,0 -5.375,2.41069 -5.375,5.375v26.875c0,2.96431 2.41069,5.375 5.375,5.375h8.0625v34.9375c0,4.44513 3.61737,8.0625 8.0625,8.0625c1.48619,0 2.6875,-1.20131 2.6875,-2.6875c0,-1.48619 -1.20131,-2.6875 -2.6875,-2.6875c-1.4835,0 -2.6875,-1.204 -2.6875,-2.6875v-34.9375h8.0625c2.96431,0 5.375,-2.41069 5.375,-5.375v-26.875c0,-2.96431 -2.41069,-5.375 -5.375,-5.375zM37.625,72.55725v26.88025h-21.5v-26.875zM155.875,72.55725v26.88025h-21.5v-26.875zM142.4375,112.875c-1.48619,0 -2.6875,1.20131 -2.6875,2.6875c0,1.48619 1.20131,2.6875 2.6875,2.6875h5.375c1.48619,0 2.6875,-1.20131 2.6875,-2.6875c0,-1.48619 -1.20131,-2.6875 -2.6875,-2.6875zM142.4375,126.3125c-1.48619,0 -2.6875,1.20131 -2.6875,2.6875c0,1.48619 1.20131,2.6875 2.6875,2.6875h5.375c1.48619,0 2.6875,-1.20131 2.6875,-2.6875c0,-1.48619 -1.20131,-2.6875 -2.6875,-2.6875zM72.5625,129c-2.96431,0 -5.375,2.41069 -5.375,5.375v21.5c0,2.96431 2.41069,5.375 5.375,5.375h26.875c2.96431,0 5.375,-2.41069 5.375,-5.375v-8.0625h34.9375c4.44513,0 8.0625,-3.61737 8.0625,-8.0625c0,-1.48619 -1.20131,-2.6875 -2.6875,-2.6875c-1.48619,0 -2.6875,1.20131 -2.6875,2.6875c0,1.4835 -1.204,2.6875 -2.6875,2.6875h-34.9375v-8.0625c0,-2.96431 -2.41069,-5.375 -5.375,-5.375zM72.5625,134.375h26.875l0.00525,21.5h-26.88025zM43,139.75c-1.48619,0 -2.6875,1.20131 -2.6875,2.6875v5.375c0,1.48619 1.20131,2.6875 2.6875,2.6875c1.48619,0 2.6875,-1.20131 2.6875,-2.6875v-5.375c0,-1.48619 -1.20131,-2.6875 -2.6875,-2.6875zM56.4375,139.75c-1.48619,0 -2.6875,1.20131 -2.6875,2.6875v5.375c0,1.48619 1.20131,2.6875 2.6875,2.6875c1.48619,0 2.6875,-1.20131 2.6875,-2.6875v-5.375c0,-1.48619 -1.20131,-2.6875 -2.6875,-2.6875z"></path></g></g></svg>
