<svg xmlns="http://www.w3.org/2000/svg" x="0px" y="0px"
width="50" height="50"
viewBox="0 0 172 172"
style=" fill:#000000;"><g fill="none" fill-rule="nonzero" stroke="none" stroke-width="1" stroke-linecap="butt" stroke-linejoin="miter" stroke-miterlimit="10" stroke-dasharray="" stroke-dashoffset="0" font-family="none" font-weight="none" font-size="none" text-anchor="none" style="mix-blend-mode: normal"><path d="M0,172v-172h172v172z" fill="none"></path><g fill="#ffffff"><path d="M86,10.32c-7.58864,0 -13.76,6.17136 -13.76,13.76c0,5.07515 2.79498,9.46661 6.89344,11.85187l-55.88656,96.25281c-1.83415,-0.90684 -3.86564,-1.46469 -6.04687,-1.46469c-7.58864,0 -13.76,6.17136 -13.76,13.76c0,7.58864 6.17136,13.76 13.76,13.76c6.39303,0 11.7307,-4.40262 13.26953,-10.32h111.06094c1.53883,5.91738 6.8765,10.32 13.26953,10.32c7.58864,0 13.76,-6.17136 13.76,-13.76c0,-7.58864 -6.17136,-13.76 -13.76,-13.76c-2.18124,0 -4.21272,0.55785 -6.04687,1.46469l-55.88656,-96.25281c4.09846,-2.38526 6.89344,-6.77672 6.89344,-11.85187c0,-7.58864 -6.17136,-13.76 -13.76,-13.76zM85.97985,37.84c0.00683,0.00001 0.01332,0 0.02015,0c0.00684,0 0.01332,0.00001 0.02015,0l0.20156,0.34265h-0.44344zM82.56,43.73235v49.98078c-5.91738,1.53883 -10.32,6.8765 -10.32,13.26953c0,1.18534 0.20073,2.31506 0.48375,3.41313l-44.08172,26.20312zM89.44,43.73235l53.9986,93.00094c-0.00634,0.00926 -0.01385,0.0176 -0.02016,0.02687l-44.18922,-26.20984c0.30974,-1.14517 0.53078,-2.32573 0.53078,-3.56766c0,-6.39303 -4.40262,-11.7307 -10.32,-13.26953zM95.86313,116.55015l41.28,24.48985h-102.125l41.13219,-24.4764c2.50135,2.57123 5.98672,4.17906 9.84969,4.17906c3.86976,0 7.36088,-1.61332 9.86313,-4.1925z"></path></g></g></svg>
