<svg xmlns="http://www.w3.org/2000/svg" x="0px" y="0px"
width="34" height="34"
viewBox="0 0 172 172"
style=" fill:#000000;"><g fill="none" fill-rule="nonzero" stroke="none" stroke-width="1" stroke-linecap="butt" stroke-linejoin="miter" stroke-miterlimit="10" stroke-dasharray="" stroke-dashoffset="0" font-family="none" font-weight="none" font-size="none" text-anchor="none" style="mix-blend-mode: normal"><path d="M0,172v-172h172v172z" fill="none"></path><g fill="#ffffff"><path d="M13.4375,5.375c-4.44067,0 -8.0625,3.62183 -8.0625,8.0625v102.125c0,4.44067 3.62183,8.0625 8.0625,8.0625h145.125c4.44067,0 8.0625,-3.62183 8.0625,-8.0625v-102.125c0,-4.44067 -3.62183,-8.0625 -8.0625,-8.0625zM13.4375,10.75h145.125c1.48022,0 2.6875,1.20728 2.6875,2.6875v102.125c0,1.48022 -1.20728,2.6875 -2.6875,2.6875h-145.125c-1.48022,0 -2.6875,-1.20728 -2.6875,-2.6875v-102.125c0,-1.48022 1.20728,-2.6875 2.6875,-2.6875zM24.1875,21.5c-1.49072,0 -2.6875,1.20728 -2.6875,2.6875v80.625c0,1.48022 1.19678,2.6875 2.6875,2.6875h123.625c1.49072,0 2.6875,-1.20728 2.6875,-2.6875v-80.625c0,-1.48022 -1.19678,-2.6875 -2.6875,-2.6875zM26.875,26.875h118.25v75.25h-118.25zM32.25,32.25c-1.49072,0 -2.6875,1.20728 -2.6875,2.6875v5.375c0,1.48022 1.19678,2.6875 2.6875,2.6875c1.49072,0 2.6875,-1.20728 2.6875,-2.6875v-5.375c0,-1.48022 -1.19678,-2.6875 -2.6875,-2.6875zM45.6875,32.25c-1.49072,0 -2.6875,1.20728 -2.6875,2.6875v5.375c0,1.48022 1.19678,2.6875 2.6875,2.6875c1.49072,0 2.6875,-1.20728 2.6875,-2.6875v-5.375c0,-1.48022 -1.19678,-2.6875 -2.6875,-2.6875zM59.125,32.25c-1.49072,0 -2.6875,1.20728 -2.6875,2.6875v5.375c0,1.48022 1.19678,2.6875 2.6875,2.6875c1.49072,0 2.6875,-1.20728 2.6875,-2.6875v-5.375c0,-1.48022 -1.19678,-2.6875 -2.6875,-2.6875zM72.5625,32.25c-1.49072,0 -2.6875,1.20728 -2.6875,2.6875v5.375c0,1.48022 1.19678,2.6875 2.6875,2.6875c1.49072,0 2.6875,-1.20728 2.6875,-2.6875v-5.375c0,-1.48022 -1.19678,-2.6875 -2.6875,-2.6875zM86,32.25c-1.49072,0 -2.6875,1.20728 -2.6875,2.6875v5.375c0,1.48022 1.19678,2.6875 2.6875,2.6875c1.49072,0 2.6875,-1.20728 2.6875,-2.6875v-5.375c0,-1.48022 -1.19678,-2.6875 -2.6875,-2.6875zM99.4375,32.25c-1.49072,0 -2.6875,1.20728 -2.6875,2.6875v5.375c0,1.48022 1.19678,2.6875 2.6875,2.6875c1.49072,0 2.6875,-1.20728 2.6875,-2.6875v-5.375c0,-1.48022 -1.19678,-2.6875 -2.6875,-2.6875zM112.875,32.25c-1.49072,0 -2.6875,1.20728 -2.6875,2.6875v5.375c0,1.48022 1.19678,2.6875 2.6875,2.6875c1.49072,0 2.6875,-1.20728 2.6875,-2.6875v-5.375c0,-1.48022 -1.19678,-2.6875 -2.6875,-2.6875zM126.3125,32.25c-1.49072,0 -2.6875,1.20728 -2.6875,2.6875v5.375c0,1.48022 1.19678,2.6875 2.6875,2.6875c1.49072,0 2.6875,-1.20728 2.6875,-2.6875v-5.375c0,-1.48022 -1.19678,-2.6875 -2.6875,-2.6875zM139.75,32.25c-1.49072,0 -2.6875,1.20728 -2.6875,2.6875v5.375c0,1.48022 1.19678,2.6875 2.6875,2.6875c1.49072,0 2.6875,-1.20728 2.6875,-2.6875v-5.375c0,-1.48022 -1.19678,-2.6875 -2.6875,-2.6875zM13.4375,129c-4.44067,0 -8.0625,3.62183 -8.0625,8.0625v21.5c0,4.44067 3.62183,8.0625 8.0625,8.0625h145.125c4.44067,0 8.0625,-3.62183 8.0625,-8.0625v-21.5c0,-4.44067 -3.62183,-8.0625 -8.0625,-8.0625zM13.4375,134.375h145.125c1.48022,0 2.6875,1.20728 2.6875,2.6875v21.5c0,1.48022 -1.20728,2.6875 -2.6875,2.6875h-145.125c-1.48022,0 -2.6875,-1.20728 -2.6875,-2.6875v-21.5c0,-1.48022 1.20728,-2.6875 2.6875,-2.6875zM142.4375,139.75c-4.44067,0 -8.0625,3.62183 -8.0625,8.0625c0,4.44067 3.62183,8.0625 8.0625,8.0625c4.44067,0 8.0625,-3.62183 8.0625,-8.0625c0,-4.44067 -3.62183,-8.0625 -8.0625,-8.0625zM142.4375,143.89673c2.1626,0 3.91577,1.75317 3.91577,3.91577c0,2.1626 -1.75317,3.91577 -3.91577,3.91577c-2.1626,0 -3.91577,-1.75317 -3.91577,-3.91577c0,-2.1626 1.75317,-3.91577 3.91577,-3.91577zM24.1875,145.125c-1.49072,0 -2.6875,1.20728 -2.6875,2.6875c0,1.48022 1.19678,2.6875 2.6875,2.6875h53.75c1.49072,0 2.6875,-1.20728 2.6875,-2.6875c0,-1.48022 -1.19678,-2.6875 -2.6875,-2.6875zM88.6875,145.125c-1.49072,0 -2.6875,1.20728 -2.6875,2.6875c0,1.48022 1.19678,2.6875 2.6875,2.6875h10.75c1.49072,0 2.6875,-1.20728 2.6875,-2.6875c0,-1.48022 -1.19678,-2.6875 -2.6875,-2.6875z"></path></g></g></svg>
