<svg xmlns="http://www.w3.org/2000/svg" x="0px" y="0px"
width="100" height="100"
viewBox="0 0 172 172"
style=" fill:#000000;"><g fill="none" fill-rule="nonzero" stroke="none" stroke-width="1" stroke-linecap="butt" stroke-linejoin="miter" stroke-miterlimit="10" stroke-dasharray="" stroke-dashoffset="0" font-family="none" font-weight="none" font-size="none" text-anchor="none" style="mix-blend-mode: normal"><path d="M0,172v-172h172v172z" fill="none"></path><g fill="#ffffff"><path d="M35.26,32.68c-0.295,0.00104 -0.56889,0.1532 -0.72563,0.40313h-0.00336l-5.12305,8.19687h-3.60797c-4.74204,0 -8.6,3.85796 -8.6,8.6v75.68c0,4.74204 3.85796,8.6 8.6,8.6h50.53508c1.08532,1.83524 3.95968,5.16 10.52492,5.16c6.56524,0 9.4396,-3.32476 10.52492,-5.16h50.53508c4.74204,0 8.6,-3.85796 8.6,-8.6v-75.68c0,-4.74204 -3.85796,-8.6 -8.6,-8.6h-3.60797l-5.09617,-8.1532c-0.00852,-0.01482 -0.01748,-0.02939 -0.02688,-0.04367c-0.15737,-0.25094 -0.43279,-0.40324 -0.72898,-0.40313c-18.99818,0 -31.98778,2.59161 -40.24867,5.20031c-7.50897,2.37125 -10.74671,4.56541 -11.35133,4.98867c-0.60462,-0.42326 -3.84236,-2.61742 -11.35133,-4.98867c-8.26089,-2.6087 -21.25049,-5.20031 -40.24867,-5.20031zM36.12,34.43023c18.33513,0.08273 30.92563,2.58029 38.87133,5.08945c6.99569,2.20917 10.22484,4.26257 11.00867,4.80055v58.01977c-0.00439,0.31015 0.15856,0.59863 0.42645,0.75498c0.26789,0.15635 0.59921,0.15635 0.8671,0c0.26789,-0.15635 0.43084,-0.44484 0.42645,-0.75498v-58.01977c0.78383,-0.53797 4.01299,-2.59138 11.00867,-4.80055c7.9457,-2.50917 20.5362,-5.00671 38.87133,-5.08945v79.12c-18.49557,0.08273 -31.25471,2.6041 -39.37859,5.17008c-0.29583,0.09061 -0.5202,0.33313 -0.58757,0.6351c-0.06737,0.30197 0.03265,0.61686 0.26192,0.82462c0.22927,0.20775 0.55246,0.27636 0.84635,0.17966c8.01807,-2.53255 20.70167,-5.07556 39.31812,-5.11297l7.16219,8.59328h-49.76914h-8.33461c-0.61883,-0.43219 -4.1201,-2.75446 -11.61,-5.11969c-8.12574,-2.56602 -20.89436,-5.08736 -39.38867,-5.17008zM34.4,36.53992v77.52765l-6.88,8.25399v-74.77633zM139.32,36.53992l6.88,11.00531v74.77633l-6.88,-8.25399zM45.62367,43.00336c-0.49192,-0.0344 -0.87615,0.33661 -0.90367,0.80961c-0.0258,0.47472 0.33997,0.87787 0.81297,0.90367c5.97872,0.32336 11.7279,0.99943 17.08914,2.00219c0.05332,0.01032 0.10793,0.0168 0.16125,0.0168c0.4042,0 0.76252,-0.28931 0.83648,-0.70211c0.08772,-0.46612 -0.21919,-0.91673 -0.68531,-1.00445c-5.43348,-1.01824 -11.25818,-1.6989 -17.31086,-2.0257zM25.8,44.72h1.45797l-1.32695,2.12313c-0.08572,0.13696 -0.13112,0.2953 -0.13102,0.45687v77.4c0.00005,0.47495 0.38505,0.85995 0.86,0.86h51.05578c0.24706,0.53922 0.68404,1.35591 1.65617,2.32805c1.42514,1.42514 3.83305,2.83195 7.48805,2.83195c3.655,0 6.06291,-1.40682 7.48805,-2.83195c0.97213,-0.97214 1.40911,-1.78883 1.65617,-2.32805h51.05578c0.47495,-0.00005 0.85995,-0.38505 0.86,-0.86v-77.4c0.00011,-0.16157 -0.0453,-0.31991 -0.13102,-0.45687l-1.32695,-2.12313h1.45797c2.84488,0 5.16,2.31512 5.16,5.16v75.68c0,2.84488 -2.31512,5.16 -5.16,5.16h-51.6c-0.72412,0 -1.37662,0.4745 -1.62258,1.15562c-0.0602,0.1634 -1.5319,4.00438 -7.83742,4.00438c-6.30552,0 -7.77738,-3.84146 -7.8307,-3.98422c-0.23392,-0.70348 -0.88798,-1.17578 -1.6293,-1.17578h-51.6c-2.84488,0 -5.16,-2.31512 -5.16,-5.16v-75.68c0,-2.84488 2.31512,-5.16 5.16,-5.16zM67.79891,46.1175c-0.3304,0.05442 -0.61412,0.30342 -0.69539,0.65172c-0.1118,0.46268 0.1756,0.92969 0.63828,1.03805c1.7372,0.4128 3.45833,0.87027 5.11297,1.36391c0.08256,0.02408 0.16439,0.03695 0.24523,0.03695c0.37152,0 0.71297,-0.23981 0.82305,-0.61477c0.13416,-0.4558 -0.12201,-0.93576 -0.57781,-1.07164c-1.68388,-0.50052 -3.43715,-0.9711 -5.20703,-1.39078c-0.11481,-0.02881 -0.22916,-0.03158 -0.3393,-0.01344zM76.47617,48.59c-0.33451,0.02548 -0.6364,0.23983 -0.7525,0.57781c-0.15136,0.45064 0.09194,0.93872 0.54086,1.0918c0.58996,0.20124 1.1632,0.40189 1.69984,0.59797c0.09804,0.0344 0.19758,0.05375 0.29563,0.05375c0.35088,0 0.68233,-0.21857 0.80961,-0.56773c0.1634,-0.4472 -0.0685,-0.93848 -0.51398,-1.10188c-0.5504,-0.19952 -1.13472,-0.405 -1.74016,-0.6114c-0.11309,-0.03612 -0.22779,-0.04881 -0.3393,-0.04031zM114.08438,51.6c-0.43172,0 -0.7944,0.12833 -1.08508,0.38633c-0.29412,0.25456 -0.44008,0.53524 -0.44008,0.84656v1.75695c-1.41212,0.11696 -2.72623,0.38009 -3.94055,0.78945c-1.21604,0.40936 -2.36328,1.00295 -3.44,1.78383c-1.07844,0.78088 -1.93041,1.84801 -2.55649,3.19477c-0.6278,1.34848 -0.94062,2.90309 -0.94062,4.66953c0,1.44996 0.23591,2.75611 0.70547,3.91367c0.47128,1.15584 0.98943,2.07849 1.55875,2.76477c0.5676,0.688 1.43088,1.3617 2.58672,2.02906c1.15584,0.66908 2.10735,1.14082 2.85211,1.4143l3.17461,1.17578v15.65469c-1.54284,-0.07912 -2.92919,-0.36308 -4.15555,-0.85328c-1.22808,-0.4902 -2.1217,-1.01966 -2.68414,-1.58898c-0.56244,-0.56932 -1.11437,-1.08919 -1.65617,-1.55875c-0.54352,-0.47128 -0.97032,-0.70883 -1.27992,-0.70883c-0.54696,0 -1.04264,0.29528 -1.49156,0.88352c-0.44892,0.58996 -0.67187,1.19634 -0.67187,1.82414c0,1.36912 1.14716,2.77793 3.44336,4.22273c2.29276,1.44652 5.12466,2.18779 8.49586,2.22391v2.03914c0,0.33024 0.14596,0.63035 0.44008,0.89695c0.29412,0.2666 0.65336,0.39977 1.08508,0.39977c0.39044,0 0.74516,-0.13317 1.0582,-0.39977c0.31304,-0.26832 0.47031,-0.56507 0.47031,-0.89359v-2.21719c3.1562,-0.42484 5.66084,-1.62013 7.51156,-3.58781c1.85072,-1.96596 2.7782,-4.64706 2.7782,-8.04234c0,-1.92124 -0.28404,-3.59959 -0.84992,-5.03235c-0.56416,-1.43104 -1.40169,-2.60878 -2.51281,-3.5307c-1.11284,-0.9202 -2.16365,-1.6454 -3.15781,-2.17688c-0.99416,-0.52804 -2.24874,-1.06882 -3.76922,-1.61922v-13.40391c1.6856,0.07912 3.25161,0.45935 4.69641,1.14219c1.4448,0.68284 2.26298,1.02125 2.45906,1.02125c0.63296,0 1.14635,-0.30954 1.54195,-0.9339c0.3956,-0.62264 0.59461,-1.20999 0.59461,-1.75695c0,-1.09048 -0.96111,-1.97779 -2.88235,-2.66063c-1.92124,-0.68284 -4.05673,-1.08062 -6.40969,-1.1993v-1.63938c0,-0.31132 -0.15727,-0.592 -0.47031,-0.84656c-0.31304,-0.25456 -0.66604,-0.38297 -1.0582,-0.38297zM45.62703,55.04336c-0.52976,-0.04988 -0.87615,0.33997 -0.90367,0.81297c-0.0258,0.47472 0.33661,0.87787 0.80961,0.90367c12.18448,0.6622 23.09697,2.72682 32.43141,6.13758c0.09804,0.0344 0.19758,0.05375 0.29563,0.05375c0.35088,0 0.68233,-0.21865 0.80961,-0.56438c0.1634,-0.4472 -0.0685,-0.93847 -0.51398,-1.10187c-9.49612,-3.46924 -20.57383,-5.5692 -32.92859,-6.24172zM112.79102,58.93688v12.32555c-2.1758,-0.78604 -3.79626,-1.63793 -4.86437,-2.55985c-1.06812,-0.9202 -1.60242,-2.30499 -1.60242,-4.14883c0,-3.31616 2.15304,-5.18859 6.4668,-5.61687zM45.62367,67.08336c-0.52976,-0.03612 -0.87615,0.33661 -0.90367,0.80961c-0.0258,0.47472 0.33997,0.87787 0.81297,0.90367c2.86896,0.15652 5.74429,0.39891 8.54961,0.72227c0.03268,0.00344 0.06638,0.00672 0.10078,0.00672c0.43,0 0.80012,-0.3257 0.84656,-0.76258c0.05504,-0.473 -0.28458,-0.89902 -0.75586,-0.95406c-2.83628,-0.3268 -5.74703,-0.56739 -8.65039,-0.72562zM61.20781,68.79664c-0.47644,-0.08428 -0.91354,0.23599 -0.99438,0.70211c-0.07912,0.46784 0.23263,0.91353 0.69875,0.99437c6.10428,1.04576 11.84231,2.54213 17.05219,4.44445c0.09804,0.0344 0.19758,0.05375 0.29563,0.05375c0.35088,0 0.68233,-0.21865 0.80961,-0.56437c0.1634,-0.4472 -0.0685,-0.93847 -0.51398,-1.10187c-5.30792,-1.93844 -11.14377,-3.46376 -17.34781,-4.52844zM115.37773,77.44031c1.88168,0.78432 3.33043,1.74706 4.35039,2.8857c1.01996,1.13864 1.52852,2.72531 1.52852,4.76695c0,3.88376 -1.95903,6.1397 -5.87891,6.76578zM45.62703,79.12336c-0.52976,-0.04816 -0.87615,0.33997 -0.90367,0.81297c-0.0258,0.47472 0.33661,0.87787 0.80961,0.90367c12.18448,0.6622 23.09697,2.72682 32.43141,6.13758c0.09804,0.0344 0.19758,0.05375 0.29563,0.05375c0.35088,0 0.68233,-0.21865 0.80961,-0.56437c0.1634,-0.4472 -0.0685,-0.93848 -0.51398,-1.10188c-9.49612,-3.46924 -20.57383,-5.5692 -32.92859,-6.24172zM45.62703,91.16336c-0.52976,-0.03268 -0.87615,0.33661 -0.90367,0.80961c-0.0258,0.47472 0.33661,0.87787 0.80961,0.90367c7.28248,0.3956 14.17955,1.30266 20.50227,2.69758c0.06192,0.01376 0.12457,0.02016 0.18477,0.02016c0.3956,0 0.75212,-0.27112 0.83984,-0.67187c0.10148,-0.4644 -0.19068,-0.92141 -0.65508,-1.02461c-6.41216,-1.41384 -13.40409,-2.33549 -20.77773,-2.73453zM73.00258,95.6582c-0.33218,0.03854 -0.62707,0.2662 -0.72898,0.60805c-0.13416,0.4558 0.12365,0.93412 0.58117,1.06828c1.74236,0.51428 3.46357,1.08105 5.10961,1.68305c0.09804,0.0344 0.19758,0.05375 0.29563,0.05375c0.35088,0 0.68069,-0.21865 0.80625,-0.56437c0.1634,-0.4472 -0.06515,-0.93847 -0.51063,-1.10187c-1.68044,-0.61232 -3.43699,-1.19196 -5.21375,-1.72c-0.11309,-0.03225 -0.22857,-0.03972 -0.3393,-0.02688zM45.62703,103.20336c-0.52976,-0.04472 -0.87615,0.33997 -0.90367,0.81297c-0.0258,0.47472 0.33661,0.87787 0.80961,0.90367c12.18448,0.6622 23.09697,2.72682 32.43141,6.13758c0.09804,0.0344 0.19758,0.05375 0.29563,0.05375c0.35088,0 0.68233,-0.21866 0.80961,-0.56437c0.1634,-0.4472 -0.0685,-0.93847 -0.51398,-1.10188c-9.49612,-3.46924 -20.57383,-5.5692 -32.92859,-6.24172zM86.84656,106.62656c-0.22809,0.00356 -0.44542,0.09758 -0.60418,0.26138c-0.15876,0.1638 -0.24595,0.38397 -0.24238,0.61205v3.44c-0.00439,0.31015 0.15856,0.59863 0.42645,0.75498c0.26789,0.15635 0.59921,0.15635 0.8671,0c0.26789,-0.15635 0.43084,-0.44484 0.42645,-0.75498v-3.44c0.00364,-0.23275 -0.08721,-0.45703 -0.25181,-0.62163c-0.1646,-0.1646 -0.38888,-0.25545 -0.62163,-0.25181zM86.84656,115.22656c-0.22809,0.00356 -0.44542,0.09758 -0.60418,0.26138c-0.15876,0.1638 -0.24595,0.38397 -0.24238,0.61205v1.72c-0.00439,0.31015 0.15856,0.59863 0.42645,0.75498c0.26789,0.15635 0.59921,0.15635 0.8671,0c0.26789,-0.15635 0.43084,-0.44484 0.42645,-0.75498v-1.72c0.00364,-0.23275 -0.08721,-0.45703 -0.25181,-0.62163c-0.1646,-0.1646 -0.38888,-0.25545 -0.62163,-0.25181zM35.65977,115.24672c18.61496,0.03741 31.31195,2.58046 39.33156,5.11297c4.05671,1.28107 6.89384,2.54072 8.72094,3.48031h-5.31789c-0.05663,-0.00906 -0.11403,-0.01244 -0.17133,-0.01008c-0.03376,0.00138 -0.06741,0.00474 -0.10078,0.01008h-49.62469zM79.68773,125.56h7.13531h0.08398h7.12523c-0.22671,0.34122 -0.50113,0.71277 -0.90031,1.11195c-1.15486,1.15486 -3.04695,2.32805 -6.27195,2.32805c-3.225,0 -5.11709,-1.17318 -6.27195,-2.32805c-0.39918,-0.39918 -0.6736,-0.77073 -0.90031,-1.11195z"></path></g></g></svg>
