<svg xmlns="http://www.w3.org/2000/svg" x="0px" y="0px"
width="64" height="64"
viewBox="0 0 172 172"
style=" fill:#000000;"><g fill="none" fill-rule="nonzero" stroke="none" stroke-width="1" stroke-linecap="butt" stroke-linejoin="miter" stroke-miterlimit="10" stroke-dasharray="" stroke-dashoffset="0" font-family="none" font-weight="none" font-size="none" text-anchor="none" style="mix-blend-mode: normal"><path d="M0,172v-172h172v172z" fill="none"></path><g fill="#ffffff"><path d="M103.33438,135.71875c-2.15,-0.5375 -4.3,0.80625 -4.8375,2.95625c-4.56875,18.94687 -10.2125,23.91875 -12.49688,23.91875c-6.18125,0 -15.99062,-22.97813 -17.7375,-64.36563c-0.13438,-2.28437 -2.01562,-3.89688 -4.16563,-3.89688c-2.28438,0.13437 -3.89688,2.01563 -3.89688,4.16562c0.80625,19.21563 3.49375,36.81875 7.525,49.71875c4.70313,14.91563 10.88438,22.44063 18.275,22.44063c8.46563,0 15.5875,-10.34688 20.29062,-30.1c0.5375,-2.15 -0.80625,-4.3 -2.95625,-4.8375z"></path><path d="M132.35938,86c13.03438,-10.48125 34.13125,-30.1 27.00938,-42.32812c-8.6,-14.78125 -49.85313,-1.20938 -86.26875,19.75313c-1.47813,0.80625 -2.82188,1.6125 -4.3,2.55313c2.55313,-36.55 11.55625,-56.57188 17.2,-56.57188c2.28437,0 7.92813,4.97187 12.49688,23.91875c0.5375,2.15 2.6875,3.49375 4.8375,2.95625c2.15,-0.5375 3.49375,-2.6875 2.95625,-4.8375c-4.70312,-19.75312 -11.825,-30.1 -20.29062,-30.1c-16.39375,0 -24.05312,37.625 -25.66562,69.875v0c-4.8375,3.225 -9.675,6.45 -14.10937,9.675c-21.63437,-17.06562 -28.62188,-29.5625 -26.60625,-33.19062c1.20938,-2.01562 8.33125,-4.3 27.00938,1.075c2.15,0.67188 4.43437,-0.5375 4.97188,-2.6875c0.67188,-2.15 -0.5375,-4.43438 -2.6875,-4.97187c-19.48437,-5.64375 -31.98125,-4.8375 -36.28125,2.55313c-6.9875,12.22812 14.10937,31.98125 27.00937,42.32813c-19.8875,15.99063 -32.65313,32.38437 -27.00937,42.32813c2.41875,4.16563 7.525,6.31563 14.91563,6.31563c5.77813,0 12.9,-1.20938 21.23125,-3.7625c2.15,-0.67187 3.35938,-2.82187 2.6875,-4.97187c-0.67187,-2.15 -2.82187,-3.35937 -4.97188,-2.6875c-18.67812,5.50937 -25.8,3.09063 -27.00937,1.075c-1.075,-1.88125 0.13438,-8.46563 12.09375,-20.425c10.88438,-11.01875 27.00938,-22.84375 45.28438,-33.45938c18.275,-10.61562 36.68438,-18.54375 51.6,-22.575c16.39375,-4.3 22.575,-2.15 23.65,-0.26875c2.01563,3.62813 -4.97188,16.125 -26.60625,33.19063c-5.64375,-4.16563 -11.55625,-8.19688 -17.60312,-11.95937c-1.88125,-1.20937 -4.43438,-0.67187 -5.50938,1.34375c-1.20937,1.88125 -0.67187,4.43437 1.34375,5.50938c36.28125,22.70937 51.73438,43.13438 48.50938,48.50938c-2.41875,4.16562 -22.17187,4.03125 -57.64688,-13.30313c1.47812,-0.80625 2.82187,-1.6125 4.3,-2.41875c5.24063,-3.09062 10.48125,-6.31562 15.45313,-9.54062c1.88125,-1.20938 2.41875,-3.7625 1.075,-5.64375c-1.34375,-1.88125 -3.7625,-2.41875 -5.64375,-1.075c-4.8375,3.225 -9.80937,6.31563 -15.05,9.27188c-3.62812,2.01563 -7.25625,4.03125 -10.88438,5.9125c-2.01562,1.075 -2.6875,3.49375 -1.74687,5.375c0.26875,0.5375 0.67188,0.94063 1.075,1.20938v0c0.13438,0.13437 0.26875,0.26875 0.5375,0.40313c0,0 0,0 0.13437,0.13437c16.93125,8.86875 33.59375,15.31875 46.62813,18.275c5.24062,1.20937 9.80937,1.74687 13.70625,1.74687c7.39063,0 12.3625,-2.15 14.78125,-6.31563c6.18125,-9.94375 -6.9875,-26.47187 -26.60625,-42.19375z"></path></g></g></svg>
