<svg xmlns="http://www.w3.org/2000/svg" x="0px" y="0px"
width="32" height="32"
viewBox="0 0 172 172"
style=" fill:#000000;"><g fill="none" fill-rule="nonzero" stroke="none" stroke-width="1" stroke-linecap="butt" stroke-linejoin="miter" stroke-miterlimit="10" stroke-dasharray="" stroke-dashoffset="0" font-family="none" font-weight="none" font-size="none" text-anchor="none" style="mix-blend-mode: normal"><path d="M0,172v-172h172v172z" fill="none"></path><g fill="#ffffff"><path d="M111.13232,24.84888l-24.30298,39.26269l-26.08765,-39.12622l-4.39868,2.6665c0,0 -16.76188,9.97314 -36.47022,9.97314h-9.09131l23.6626,43h3.18091c22.477,0 38.64262,-10.48429 39.7981,-11.24341l3.19141,4.77661l-42.18115,68.14282l9.1333,5.64795l39.58814,-63.9646l42.74805,64.12207l8.94433,-5.9629l-45.46704,-68.20581l2.43555,-3.93676c2.71089,1.71264 17.32752,10.62402 38.55933,10.62402h3.2124l23.1377,-43h-8.99683c-19.70834,0 -36.0188,-9.94165 -36.0188,-9.94165zM57.20386,39.05273l14.24585,21.38452c-1.09971,0.70504 -13.50932,8.18459 -30.83277,9.1018l-12.16724,-22.10889c14.81644,-1.77625 24.24337,-5.95871 28.75415,-8.37744zM114.92212,39.14722c4.58852,2.48615 13.74311,6.54692 28.31324,8.29346l-11.89429,22.09839c-16.42166,-0.88119 -27.7089,-7.30542 -29.87744,-8.65039z"></path></g></g></svg>
