<svg xmlns="http://www.w3.org/2000/svg" x="0px" y="0px"
width="80" height="80"
viewBox="0 0 172 172"
style=" fill:#000000;"><g fill="none" fill-rule="nonzero" stroke="none" stroke-width="1" stroke-linecap="butt" stroke-linejoin="miter" stroke-miterlimit="10" stroke-dasharray="" stroke-dashoffset="0" font-family="none" font-weight="none" font-size="none" text-anchor="none" style="mix-blend-mode: normal"><path d="M0,172v-172h172v172z" fill="none"></path><g fill="#ffffff"><path d="M43,19.35c-5.9125,0 -10.75,4.8375 -10.75,10.75v111.8c0,5.9125 4.8375,10.75 10.75,10.75h86c5.9125,0 10.75,-4.8375 10.75,-10.75v-111.8c0,-5.9125 -4.8375,-10.75 -10.75,-10.75zM43,23.65h86c3.58613,0 6.45,2.86387 6.45,6.45v111.8c0,3.58613 -2.86387,6.45 -6.45,6.45h-86c-3.58613,0 -6.45,-2.86387 -6.45,-6.45v-111.8c0,-3.58613 2.86387,-6.45 6.45,-6.45zM45.15,32.25v21.5h81.7v-21.5zM49.45,36.55h73.1v12.9h-73.1zM43,64.5c-1.18418,0 -2.15,0.96582 -2.15,2.15c0,1.18418 0.96582,2.15 2.15,2.15c1.18418,0 2.15,-0.96582 2.15,-2.15c0,-1.18418 -0.96582,-2.15 -2.15,-2.15zM51.6,64.5c-1.18418,0 -2.15,0.96582 -2.15,2.15c0,1.18418 0.96582,2.15 2.15,2.15c1.18418,0 2.15,-0.96582 2.15,-2.15c0,-1.18418 -0.96582,-2.15 -2.15,-2.15zM60.2,64.5c-1.18418,0 -2.15,0.96582 -2.15,2.15c0,1.18418 0.96582,2.15 2.15,2.15c1.18418,0 2.15,-0.96582 2.15,-2.15c0,-1.18418 -0.96582,-2.15 -2.15,-2.15zM68.8,64.5c-1.18418,0 -2.15,0.96582 -2.15,2.15c0,1.18418 0.96582,2.15 2.15,2.15c1.18418,0 2.15,-0.96582 2.15,-2.15c0,-1.18418 -0.96582,-2.15 -2.15,-2.15zM77.4,64.5c-1.18418,0 -2.15,0.96582 -2.15,2.15c0,1.18418 0.96582,2.15 2.15,2.15c1.18418,0 2.15,-0.96582 2.15,-2.15c0,-1.18418 -0.96582,-2.15 -2.15,-2.15zM86,64.5c-1.18418,0 -2.15,0.96582 -2.15,2.15c0,1.18418 0.96582,2.15 2.15,2.15c1.18418,0 2.15,-0.96582 2.15,-2.15c0,-1.18418 -0.96582,-2.15 -2.15,-2.15zM94.6,64.5c-1.18418,0 -2.15,0.96582 -2.15,2.15c0,1.18418 0.96582,2.15 2.15,2.15c1.18418,0 2.15,-0.96582 2.15,-2.15c0,-1.18418 -0.96582,-2.15 -2.15,-2.15zM103.2,64.5c-1.18418,0 -2.15,0.96582 -2.15,2.15c0,1.18418 0.96582,2.15 2.15,2.15c1.18418,0 2.15,-0.96582 2.15,-2.15c0,-1.18418 -0.96582,-2.15 -2.15,-2.15zM111.8,64.5c-1.18418,0 -2.15,0.96582 -2.15,2.15c0,1.18418 0.96582,2.15 2.15,2.15c1.18418,0 2.15,-0.96582 2.15,-2.15c0,-1.18418 -0.96582,-2.15 -2.15,-2.15zM120.4,64.5c-1.18418,0 -2.15,0.96582 -2.15,2.15c0,1.18418 0.96582,2.15 2.15,2.15c1.18418,0 2.15,-0.96582 2.15,-2.15c0,-1.18418 -0.96582,-2.15 -2.15,-2.15zM129,64.5c-1.18418,0 -2.15,0.96582 -2.15,2.15c0,1.18418 0.96582,2.15 2.15,2.15c1.18418,0 2.15,-0.96582 2.15,-2.15c0,-1.18418 -0.96582,-2.15 -2.15,-2.15zM45.15,79.55v17.2h17.2v-17.2zM66.65,79.55v17.2h17.2v-17.2zM88.15,79.55v17.2h17.2v-17.2zM109.65,79.55v17.2h17.2v-17.2zM49.45,83.85h8.6v8.6h-8.6zM70.95,83.85h8.6v8.6h-8.6zM92.45,83.85h8.6v8.6h-8.6zM113.95,83.85h8.6v8.6h-8.6zM45.15,101.05v17.2h17.2v-17.2zM66.65,101.05v17.2h17.2v-17.2zM88.15,101.05v17.2h17.2v-17.2zM109.65,101.05v17.2h17.2v-17.2zM49.45,105.35h8.6v8.6h-8.6zM70.95,105.35h8.6v8.6h-8.6zM92.45,105.35h8.6v8.6h-8.6zM113.95,105.35h8.6v8.6h-8.6zM45.15,122.55v17.2h17.2v-17.2zM66.65,122.55v17.2h17.2v-17.2zM88.15,122.55v17.2h17.2v-17.2zM109.65,122.55v17.2h17.2v-17.2zM49.45,126.85h8.6v8.6h-8.6zM70.95,126.85h8.6v8.6h-8.6zM92.45,126.85h8.6v8.6h-8.6zM113.95,126.85h8.6v8.6h-8.6z"></path></g></g></svg>
