<svg xmlns="http://www.w3.org/2000/svg" x="0px" y="0px"
width="80" height="80"
viewBox="0 0 172 172"
style=" fill:#000000;"><g fill="none" fill-rule="nonzero" stroke="none" stroke-width="1" stroke-linecap="butt" stroke-linejoin="miter" stroke-miterlimit="10" stroke-dasharray="" stroke-dashoffset="0" font-family="none" font-weight="none" font-size="none" text-anchor="none" style="mix-blend-mode: normal"><path d="M0,172v-172h172v172z" fill="none"></path><g fill="#ffffff"><path d="M86,8.6c-6.33684,0 -11.39818,4.70792 -12.46328,10.75h-11.18672h-2.15h-21.5c-3.53669,0 -6.45,2.91331 -6.45,6.45v120.4c0,3.53669 2.91331,6.45 6.45,6.45h55.9v-4.3h-55.9c-1.21481,0 -2.15,-0.93519 -2.15,-2.15v-120.4c0,-1.21481 0.93519,-2.15 2.15,-2.15h21.5v6.45c0,3.53669 2.91331,6.45 6.45,6.45h38.7c3.53669,0 6.45,-2.91331 6.45,-6.45v-6.45h21.5c1.18465,0 2.15,0.9632 2.15,2.15v81.1751l4.3,1.68389v-82.85898c0,-3.5561 -2.8939,-6.45 -6.45,-6.45h-21.5h-13.33672c-1.0651,-6.04208 -6.12644,-10.75 -12.46328,-10.75zM86,12.9c4.77381,0 8.6,3.82619 8.6,8.6v2.15h2.15h10.75v6.45c0,1.21481 -0.93519,2.15 -2.15,2.15h-38.7c-1.21481,0 -2.15,-0.93519 -2.15,-2.15v-6.45h12.9v-2.15c0,-4.77381 3.82619,-8.6 8.6,-8.6zM86,19.35c-1.18741,0 -2.15,0.96259 -2.15,2.15c0,1.18741 0.96259,2.15 2.15,2.15c1.18741,0 2.15,-0.96259 2.15,-2.15c0,-1.18741 -0.96259,-2.15 -2.15,-2.15zM47.3,27.95c-1.18741,0 -2.15,0.96259 -2.15,2.15c0,1.18741 0.96259,2.15 2.15,2.15c1.18741,0 2.15,-0.96259 2.15,-2.15c0,-1.18741 -0.96259,-2.15 -2.15,-2.15zM47.3,36.55c-1.18741,0 -2.15,0.96259 -2.15,2.15c0,1.18741 0.96259,2.15 2.15,2.15c1.18741,0 2.15,-0.96259 2.15,-2.15c0,-1.18741 -0.96259,-2.15 -2.15,-2.15zM47.3,45.15c-1.18741,0 -2.15,0.96259 -2.15,2.15c0,1.18741 0.96259,2.15 2.15,2.15c1.18741,0 2.15,-0.96259 2.15,-2.15c0,-1.18741 -0.96259,-2.15 -2.15,-2.15zM47.3,53.75c-1.18741,0 -2.15,0.96259 -2.15,2.15c0,1.18741 0.96259,2.15 2.15,2.15c1.18741,0 2.15,-0.96259 2.15,-2.15c0,-1.18741 -0.96259,-2.15 -2.15,-2.15zM62.35,53.75c-0.77537,-0.01097 -1.49657,0.39641 -1.88746,1.06613c-0.39088,0.66972 -0.39088,1.49803 0,2.16775c0.39088,0.66972 1.11209,1.07709 1.88746,1.06613h47.3c0.77537,0.01097 1.49657,-0.39641 1.88746,-1.06613c0.39088,-0.66972 0.39088,-1.49803 0,-2.16775c-0.39088,-0.66972 -1.11209,-1.07709 -1.88746,-1.06613zM47.3,62.35c-1.18741,0 -2.15,0.96259 -2.15,2.15c0,1.18741 0.96259,2.15 2.15,2.15c1.18741,0 2.15,-0.96259 2.15,-2.15c0,-1.18741 -0.96259,-2.15 -2.15,-2.15zM73.1,62.35c-0.77537,-0.01097 -1.49657,0.39641 -1.88746,1.06613c-0.39088,0.66972 -0.39088,1.49803 0,2.16775c0.39088,0.66972 1.11209,1.07709 1.88746,1.06613h36.55c0.77537,0.01097 1.49657,-0.39641 1.88746,-1.06613c0.39088,-0.66972 0.39088,-1.49803 0,-2.16775c-0.39088,-0.66972 -1.11209,-1.07709 -1.88746,-1.06613zM47.3,70.95c-1.18741,0 -2.15,0.96259 -2.15,2.15c0,1.18741 0.96259,2.15 2.15,2.15c1.18741,0 2.15,-0.96259 2.15,-2.15c0,-1.18741 -0.96259,-2.15 -2.15,-2.15zM73.1,70.95c-0.77537,-0.01097 -1.49657,0.39641 -1.88746,1.06613c-0.39088,0.66972 -0.39088,1.49803 0,2.16775c0.39088,0.66972 1.11209,1.07709 1.88746,1.06613h36.55c0.77537,0.01097 1.49657,-0.39641 1.88746,-1.06613c0.39088,-0.66972 0.39088,-1.49803 0,-2.16775c-0.39088,-0.66972 -1.11209,-1.07709 -1.88746,-1.06613zM47.3,79.55c-1.18741,0 -2.15,0.96259 -2.15,2.15c0,1.18741 0.96259,2.15 2.15,2.15c1.18741,0 2.15,-0.96259 2.15,-2.15c0,-1.18741 -0.96259,-2.15 -2.15,-2.15zM47.3,88.15c-1.18741,0 -2.15,0.96259 -2.15,2.15c0,1.18741 0.96259,2.15 2.15,2.15c1.18741,0 2.15,-0.96259 2.15,-2.15c0,-1.18741 -0.96259,-2.15 -2.15,-2.15zM62.35,88.15c-0.77537,-0.01097 -1.49657,0.39641 -1.88746,1.06613c-0.39088,0.66972 -0.39088,1.49803 0,2.16775c0.39088,0.66972 1.11209,1.07709 1.88746,1.06613h47.3c0.77537,0.01097 1.49657,-0.39641 1.88746,-1.06613c0.39088,-0.66972 0.39088,-1.49803 0,-2.16775c-0.39088,-0.66972 -1.11209,-1.07709 -1.88746,-1.06613zM47.3,96.75c-1.18741,0 -2.15,0.96259 -2.15,2.15c0,1.18741 0.96259,2.15 2.15,2.15c1.18741,0 2.15,-0.96259 2.15,-2.15c0,-1.18741 -0.96259,-2.15 -2.15,-2.15zM73.1,96.75c-0.77537,-0.01097 -1.49657,0.39641 -1.88746,1.06613c-0.39088,0.66972 -0.39088,1.49803 0,2.16775c0.39088,0.66972 1.11209,1.07709 1.88746,1.06613h36.55c0.77537,0.01097 1.49657,-0.39641 1.88746,-1.06613c0.39088,-0.66972 0.39088,-1.49803 0,-2.16775c-0.39088,-0.66972 -1.11209,-1.07709 -1.88746,-1.06613zM47.3,105.35c-1.18741,0 -2.15,0.96259 -2.15,2.15c0,1.18741 0.96259,2.15 2.15,2.15c1.18741,0 2.15,-0.96259 2.15,-2.15c0,-1.18741 -0.96259,-2.15 -2.15,-2.15zM124.7,107.5c-0.71531,0 -1.43063,0.13379 -2.10801,0.39893l-42.74385,16.6751c-1.46863,0.57194 -2.44814,2.00554 -2.44814,3.58193v2.15h0.66768c0.42865,0.63328 1.03863,1.14303 1.78047,1.43193l19.05186,7.43262v11.22451h0.0126c-0.00137,0.0364 -0.0126,0.06804 -0.0126,0.10498c0,1.09569 0.61448,1.95222 1.20098,2.47334c0.5865,0.52111 1.22791,0.86244 1.95684,1.17578c1.45784,0.62668 3.29998,1.10123 5.53457,1.50752c4.46918,0.81258 10.47122,1.29336 17.10762,1.29336c6.6364,0 12.63844,-0.48078 17.10762,-1.29336c2.23459,-0.40629 4.07673,-0.88084 5.53457,-1.50752c0.72892,-0.31334 1.37034,-0.65467 1.95684,-1.17578c0.5865,-0.52112 1.20098,-1.37765 1.20098,-2.47334c0,-0.03549 -0.01133,-0.0658 -0.0126,-0.10078h0.0126v-11.22871l8.6,-3.35518v21.73096c-1.28061,0.74448 -2.15,2.11498 -2.15,3.70371c0,2.37575 4.3,10.03613 4.3,10.03613c0,0 4.3,-7.66038 4.3,-10.03613c0,-1.58873 -0.86939,-2.95923 -2.15,-3.70371v-23.41064l6.15186,-2.39775c0.73991,-0.28815 1.35133,-0.79839 1.78047,-1.43193h0.66768v-2.15c0,-1.57639 -0.97951,-3.00999 -2.44814,-3.58193l-42.74385,-16.6751c-0.67738,-0.26514 -1.39269,-0.39893 -2.10801,-0.39893zM124.7,111.8c0.18384,0 0.36768,0.03267 0.5417,0.10078l41.66045,16.25518l-16.46514,6.42061c-0.15374,-1.61628 -1.15617,-3.06353 -2.6917,-3.67852c-3.26113,-1.3104 -11.45319,-4.04805 -23.04531,-4.04805c-11.59213,0 -19.78612,2.74071 -23.04531,4.04805v-0.0042c-1.53594,0.61524 -2.5384,2.06535 -2.6917,3.68272l-16.46514,-6.42061l41.66045,-16.25518c0.17402,-0.06811 0.35786,-0.10078 0.5417,-0.10078zM47.3,113.95c-1.18741,0 -2.15,0.96259 -2.15,2.15c0,1.18741 0.96259,2.15 2.15,2.15c1.18741,0 2.15,-0.96259 2.15,-2.15c0,-1.18741 -0.96259,-2.15 -2.15,-2.15zM47.3,122.55c-1.18741,0 -2.15,0.96259 -2.15,2.15c0,1.18741 0.96259,2.15 2.15,2.15c1.18741,0 2.15,-0.96259 2.15,-2.15c0,-1.18741 -0.96259,-2.15 -2.15,-2.15zM47.3,131.15c-1.18741,0 -2.15,0.96259 -2.15,2.15c0,1.18741 0.96259,2.15 2.15,2.15c1.18741,0 2.15,-0.96259 2.15,-2.15c0,-1.18741 -0.96259,-2.15 -2.15,-2.15zM124.7,131.15c10.91407,0 18.57054,2.5838 21.44121,3.7373h0.0042v0.0042c0.04163,0.01661 0.05459,0.02866 0.05459,0.08818v11.48486c-1.25839,-0.43163 -2.67303,-0.80858 -4.39238,-1.12119c-4.46918,-0.81258 -10.47122,-1.29336 -17.10762,-1.29336c-6.6364,0 -12.63844,0.48078 -17.10762,1.29336c-1.71935,0.31261 -3.13399,0.68956 -4.39238,1.12119v-11.48486c0,-0.05953 0.0129,-0.07568 0.05459,-0.09238c2.87261,-1.15226 10.53134,-3.7373 21.44541,-3.7373zM47.3,139.75c-1.18741,0 -2.15,0.96259 -2.15,2.15c0,1.18741 0.96259,2.15 2.15,2.15c1.18741,0 2.15,-0.96259 2.15,-2.15c0,-1.18741 -0.96259,-2.15 -2.15,-2.15zM124.7,148.35c6.42514,0 12.24872,0.48246 16.33916,1.22617c1.54135,0.28025 2.52029,0.60798 3.46856,0.92383c-0.94826,0.31585 -1.92721,0.64358 -3.46856,0.92383c-4.09044,0.74372 -9.91402,1.22617 -16.33916,1.22617c-6.42514,0 -12.24872,-0.48246 -16.33916,-1.22617c-1.54135,-0.28025 -2.52029,-0.60798 -3.46856,-0.92383c0.94826,-0.31585 1.92721,-0.64358 3.46856,-0.92383c4.09044,-0.74372 9.91402,-1.22617 16.33916,-1.22617z"></path></g></g></svg>
