<svg xmlns="http://www.w3.org/2000/svg" x="0px" y="0px"
width="80" height="80"
viewBox="0 0 172 172"
style=" fill:#000000;"><g fill="none" fill-rule="nonzero" stroke="none" stroke-width="1" stroke-linecap="butt" stroke-linejoin="miter" stroke-miterlimit="10" stroke-dasharray="" stroke-dashoffset="0" font-family="none" font-weight="none" font-size="none" text-anchor="none" style="mix-blend-mode: normal"><path d="M0,172v-172h172v172z" fill="none"></path><g fill="#ffffff"><path d="M23.65,23.65c-4.72427,0 -8.6,3.87573 -8.6,8.6v116.1h2.15h139.75v-116.1c0,-4.72427 -3.87573,-8.6 -8.6,-8.6zM23.65,27.95h124.7c2.40083,0 4.3,1.89917 4.3,4.3v15.05v96.75h-133.3v-96.75v-15.05c0,-2.40083 1.89917,-4.3 4.3,-4.3zM19.35,47.3c0,1.18741 0.96259,2.15 2.15,2.15c1.18741,0 2.15,-0.96259 2.15,-2.15c0,-1.18741 -0.96259,-2.15 -2.15,-2.15c-1.18741,0 -2.15,0.96259 -2.15,2.15zM152.65,47.3c0,-1.18741 -0.96259,-2.15 -2.15,-2.15c-1.18741,0 -2.15,0.96259 -2.15,2.15c0,1.18741 0.96259,2.15 2.15,2.15c1.18741,0 2.15,-0.96259 2.15,-2.15zM27.95,32.25c-2.37482,0 -4.3,1.92518 -4.3,4.3c0,2.37482 1.92518,4.3 4.3,4.3c2.37482,0 4.3,-1.92518 4.3,-4.3c0,-2.37482 -1.92518,-4.3 -4.3,-4.3zM40.85,32.25c-2.37482,0 -4.3,1.92518 -4.3,4.3c0,2.37482 1.92518,4.3 4.3,4.3c2.37482,0 4.3,-1.92518 4.3,-4.3c0,-2.37482 -1.92518,-4.3 -4.3,-4.3zM53.75,32.25c-2.37482,0 -4.3,1.92518 -4.3,4.3c0,2.37482 1.92518,4.3 4.3,4.3c2.37482,0 4.3,-1.92518 4.3,-4.3c0,-2.37482 -1.92518,-4.3 -4.3,-4.3zM30.1,45.15c-1.18741,0 -2.15,0.96259 -2.15,2.15c0,1.18741 0.96259,2.15 2.15,2.15c1.18741,0 2.15,-0.96259 2.15,-2.15c0,-1.18741 -0.96259,-2.15 -2.15,-2.15zM38.7,45.15c-1.18741,0 -2.15,0.96259 -2.15,2.15c0,1.18741 0.96259,2.15 2.15,2.15c1.18741,0 2.15,-0.96259 2.15,-2.15c0,-1.18741 -0.96259,-2.15 -2.15,-2.15zM47.3,45.15c-1.18741,0 -2.15,0.96259 -2.15,2.15c0,1.18741 0.96259,2.15 2.15,2.15c1.18741,0 2.15,-0.96259 2.15,-2.15c0,-1.18741 -0.96259,-2.15 -2.15,-2.15zM55.9,45.15c-1.18741,0 -2.15,0.96259 -2.15,2.15c0,1.18741 0.96259,2.15 2.15,2.15c1.18741,0 2.15,-0.96259 2.15,-2.15c0,-1.18741 -0.96259,-2.15 -2.15,-2.15zM64.5,45.15c-1.18741,0 -2.15,0.96259 -2.15,2.15c0,1.18741 0.96259,2.15 2.15,2.15c1.18741,0 2.15,-0.96259 2.15,-2.15c0,-1.18741 -0.96259,-2.15 -2.15,-2.15zM73.1,45.15c-1.18741,0 -2.15,0.96259 -2.15,2.15c0,1.18741 0.96259,2.15 2.15,2.15c1.18741,0 2.15,-0.96259 2.15,-2.15c0,-1.18741 -0.96259,-2.15 -2.15,-2.15zM81.7,45.15c-1.18741,0 -2.15,0.96259 -2.15,2.15c0,1.18741 0.96259,2.15 2.15,2.15c1.18741,0 2.15,-0.96259 2.15,-2.15c0,-1.18741 -0.96259,-2.15 -2.15,-2.15zM90.3,45.15c-1.18741,0 -2.15,0.96259 -2.15,2.15c0,1.18741 0.96259,2.15 2.15,2.15c1.18741,0 2.15,-0.96259 2.15,-2.15c0,-1.18741 -0.96259,-2.15 -2.15,-2.15zM98.9,45.15c-1.18741,0 -2.15,0.96259 -2.15,2.15c0,1.18741 0.96259,2.15 2.15,2.15c1.18741,0 2.15,-0.96259 2.15,-2.15c0,-1.18741 -0.96259,-2.15 -2.15,-2.15zM107.5,45.15c-1.18741,0 -2.15,0.96259 -2.15,2.15c0,1.18741 0.96259,2.15 2.15,2.15c1.18741,0 2.15,-0.96259 2.15,-2.15c0,-1.18741 -0.96259,-2.15 -2.15,-2.15zM116.1,45.15c-1.18741,0 -2.15,0.96259 -2.15,2.15c0,1.18741 0.96259,2.15 2.15,2.15c1.18741,0 2.15,-0.96259 2.15,-2.15c0,-1.18741 -0.96259,-2.15 -2.15,-2.15zM124.7,45.15c-1.18741,0 -2.15,0.96259 -2.15,2.15c0,1.18741 0.96259,2.15 2.15,2.15c1.18741,0 2.15,-0.96259 2.15,-2.15c0,-1.18741 -0.96259,-2.15 -2.15,-2.15zM133.3,45.15c-1.18741,0 -2.15,0.96259 -2.15,2.15c0,1.18741 0.96259,2.15 2.15,2.15c1.18741,0 2.15,-0.96259 2.15,-2.15c0,-1.18741 -0.96259,-2.15 -2.15,-2.15zM141.9,45.15c-1.18741,0 -2.15,0.96259 -2.15,2.15c0,1.18741 0.96259,2.15 2.15,2.15c1.18741,0 2.15,-0.96259 2.15,-2.15c0,-1.18741 -0.96259,-2.15 -2.15,-2.15zM36.55,60.2c-3.53669,0 -6.45,2.91331 -6.45,6.45v60.2c0,3.53669 2.91331,6.45 6.45,6.45h2.15c0.77537,0.01097 1.49657,-0.39641 1.88746,-1.06613c0.39088,-0.66972 0.39088,-1.49803 0,-2.16775c-0.39088,-0.66972 -1.11209,-1.07709 -1.88746,-1.06613h-2.15c-1.21481,0 -2.15,-0.93519 -2.15,-2.15v-60.2c0,-1.21481 0.93519,-2.15 2.15,-2.15h38.7c1.21481,0 2.15,0.93519 2.15,2.15v60.2c0,1.21481 -0.93519,2.15 -2.15,2.15h-2.15c-0.77537,-0.01097 -1.49657,0.39641 -1.88746,1.06613c-0.39088,0.66972 -0.39088,1.49803 0,2.16775c0.39088,0.66972 1.11209,1.07709 1.88746,1.06613h2.15c3.53669,0 6.45,-2.91331 6.45,-6.45v-60.2c0,-3.53669 -2.91331,-6.45 -6.45,-6.45zM96.75,60.2c-3.53669,0 -6.45,2.91331 -6.45,6.45v6.45c0,3.53669 2.91331,6.45 6.45,6.45h38.7c3.53669,0 6.45,-2.91331 6.45,-6.45v-6.45c0,-3.53669 -2.91331,-6.45 -6.45,-6.45zM96.75,64.5h38.7c1.21481,0 2.15,0.93519 2.15,2.15v6.45c0,1.21481 -0.93519,2.15 -2.15,2.15h-38.7c-1.21481,0 -2.15,-0.93519 -2.15,-2.15v-6.45c0,-1.21481 0.93519,-2.15 2.15,-2.15zM90.3,90.3v4.3h51.6v-4.3zM90.3,103.2v4.3h51.6v-4.3zM90.3,116.1v4.3h51.6v-4.3zM47.3,129c-1.18741,0 -2.15,0.96259 -2.15,2.15c0,1.18741 0.96259,2.15 2.15,2.15c1.18741,0 2.15,-0.96259 2.15,-2.15c0,-1.18741 -0.96259,-2.15 -2.15,-2.15zM55.9,129c-1.18741,0 -2.15,0.96259 -2.15,2.15c0,1.18741 0.96259,2.15 2.15,2.15c1.18741,0 2.15,-0.96259 2.15,-2.15c0,-1.18741 -0.96259,-2.15 -2.15,-2.15zM64.5,129c-1.18741,0 -2.15,0.96259 -2.15,2.15c0,1.18741 0.96259,2.15 2.15,2.15c1.18741,0 2.15,-0.96259 2.15,-2.15c0,-1.18741 -0.96259,-2.15 -2.15,-2.15zM90.3,129v4.3h30.1v-4.3z"></path></g></g></svg>
